<svg xmlns="http://www.w3.org/2000/svg" viewBox="0 0 220 220"><defs><style>.cls-1{fill:#4695eb;}.cls-2{fill:#ff004a;}.cls-3{fill:#091313;}</style></defs><title>quarkus</title><g id="quarkus"><polygon class="cls-1" points="135.87 51.91 109.32 67.24 135.87 82.57 135.87 51.91"/><polygon class="cls-2" points="82.77 51.91 82.77 82.57 109.32 67.24 82.77 51.91"/><polygon class="cls-3" points="135.87 82.57 109.32 67.24 82.77 82.57 109.32 97.89 135.87 82.57"/><polygon class="cls-1" points="54.77 100.4 81.32 115.73 81.32 85.07 54.77 100.4"/><polygon class="cls-2" points="81.32 146.39 107.87 131.06 81.32 115.73 81.32 146.39"/><polygon class="cls-3" points="81.32 85.07 81.32 115.73 107.87 131.06 107.87 100.4 81.32 85.07"/><polygon class="cls-1" points="137.31 146.39 137.31 115.73 110.77 131.06 137.31 146.39"/><polygon class="cls-2" points="163.87 100.4 137.31 85.07 137.31 115.73 163.87 100.4"/><polygon class="cls-3" points="110.77 131.06 137.31 115.73 137.31 85.07 110.77 100.4 110.77 131.06"/><path class="cls-1" d="M166.94,21.61H51.7a28.69,28.69,0,0,0-28.61,28.6V165.46A28.69,28.69,0,0,0,51.7,194.07h78.92l-21.3-51.74L93.86,175H51.7a9.67,9.67,0,0,1-9.54-9.54V50.21a9.67,9.67,0,0,1,9.54-9.54H166.94a9.67,9.67,0,0,1,9.54,9.54V165.46a9.67,9.67,0,0,1-9.54,9.54h-25l7.85,19.07h17.16a28.69,28.69,0,0,0,28.61-28.61V50.21A28.69,28.69,0,0,0,166.94,21.61Z"/></g></svg>