<svg xmlns="http://www.w3.org/2000/svg" viewBox="0 0 220 220"><defs><style>.cls-1{fill:#dd0031;}.cls-2{fill:#c3002f;}.cls-3{fill:#fff;}</style></defs><title>angular</title><g id="angular"><polygon class="cls-1" points="110 10 110 10 110 10 16.9 43.2 31.1 166.3 110 210 110 210 110 210 188.9 166.3 203.1 43.2 110 10"/><polygon class="cls-2" points="110 10 110 32.2 110 32.1 110 133.4 110 133.4 110 210 110 210 188.9 166.3 203.1 43.2 110 10"/><path class="cls-3" d="M110,32.1,51.8,162.6H73.5l11.7-29.2h49.4l11.7,29.2H168L110,32.1Zm17,83.3H93l17-40.9Z"/></g></svg>