<svg xmlns="http://www.w3.org/2000/svg" viewBox="0 0 220 220"><defs><style>.cls-1{fill:#5c2d91;}.cls-2,.cls-3{fill:#fff;}.cls-2{opacity:0.1;isolation:isolate;}.cls-4{fill:#f2f2f2;}</style></defs><title>dotnetcore</title><g id="dotnetcore"><circle class="cls-1" cx="112.1" cy="111.26" r="93.96"/><path class="cls-2" d="M47,43.72A94,94,0,0,0,172,184a95,95,0,0,0,7.64-7.64Z"/><path class="cls-3" d="M39.87,126.67a4,4,0,0,1-2.94-1.23,4.19,4.19,0,0,1,0-5.87,4,4,0,0,1,2.94-1.27,4.19,4.19,0,0,1,0,8.37Z"/><path class="cls-3" d="M98.22,125.94h-7.7L63,83.24a16.94,16.94,0,0,1-1.7-3.34h-.24a54.48,54.48,0,0,1,.29,7.34v38.7H55.11V72.41h8.13L90,114.34c1.12,1.74,1.84,2.94,2.18,3.58h.14a57.46,57.46,0,0,1-.38-7.87V72.41h6.26Z"/><path class="cls-3" d="M140.56,125.94H112.1V72.41h27.14v5.66H118.51v17.8h19.32v5.64H118.51v18.55h22.08Z"/><path class="cls-3" d="M182.58,78.07H167v47.87h-6.25V78.07H145.37V72.41h37.21Z"/><path class="cls-4" d="M94.84,162.35A14.58,14.58,0,0,1,88,163.79a11,11,0,0,1-8.43-3.38,12.47,12.47,0,0,1-3.17-8.81A13.09,13.09,0,0,1,80,142a12.08,12.08,0,0,1,9-3.64,14.44,14.44,0,0,1,5.88,1v2.93A11.83,11.83,0,0,0,89,140.88a9,9,0,0,0-6.9,2.94,10.72,10.72,0,0,0-2.64,7.58A10.18,10.18,0,0,0,82,158.59a8.41,8.41,0,0,0,6.49,2.67,12.19,12.19,0,0,0,6.43-1.64Z"/><path class="cls-4" d="M106.85,163.79a8.19,8.19,0,0,1-6.26-2.62,9.14,9.14,0,0,1-2.32-6.54,9.53,9.53,0,0,1,2.44-6.93,8.78,8.78,0,0,1,6.55-2.5,7.93,7.93,0,0,1,6.14,2.44,9.65,9.65,0,0,1,2.2,6.72,9.44,9.44,0,0,1-2.38,6.75A8.36,8.36,0,0,1,106.85,163.79Zm.2-16.06a5.38,5.38,0,0,0-4.28,1.84,7.62,7.62,0,0,0-1.59,5.11,7.18,7.18,0,0,0,1.59,4.94,5.4,5.4,0,0,0,4.28,1.82,5.19,5.19,0,0,0,4.2-1.76,9.46,9.46,0,0,0,0-10.13A5.09,5.09,0,0,0,107.05,147.73Z"/><path class="cls-4" d="M129.31,148.61a3.39,3.39,0,0,0-2.14-.56,3.62,3.62,0,0,0-2.94,1.7,7.9,7.9,0,0,0-1.2,4.64v9h-2.94V145.76H123v3.67h0a6.09,6.09,0,0,1,1.85-2.94,4.21,4.21,0,0,1,2.76-1,4.73,4.73,0,0,1,1.67.24Z"/><path class="cls-4" d="M146.52,155.3H134.1a6.56,6.56,0,0,0,1.49,4.52,5.47,5.47,0,0,0,4.17,1.59,8.79,8.79,0,0,0,5.47-2v2.64a10.22,10.22,0,0,1-6.14,1.68,7.45,7.45,0,0,1-5.87-2.41,9.83,9.83,0,0,1-2.15-6.75,9.7,9.7,0,0,1,2.32-6.7,7.47,7.47,0,0,1,5.88-2.58,6.63,6.63,0,0,1,5.34,2.23,9.33,9.33,0,0,1,1.88,6.22Zm-2.94-2.38a5.87,5.87,0,0,0-1.17-3.79,4.06,4.06,0,0,0-3.23-1.35,4.58,4.58,0,0,0-3.38,1.44,6.47,6.47,0,0,0-1.73,3.73Z"/></g></svg>