<svg xmlns="http://www.w3.org/2000/svg" xmlns:xlink="http://www.w3.org/1999/xlink" viewBox="0 0 220 220"><defs><style>.cls-1{stroke-linejoin:round;stroke-width:3.72px;fill:url(#linear-gradient);stroke:url(#linear-gradient-2);}.cls-2,.cls-3{opacity:0.75;isolation:isolate;}.cls-2{fill:url(#linear-gradient-3);}.cls-3{fill:#28170b;}.cls-4{fill:#fff;}</style><linearGradient id="linear-gradient" x1="-4844.96" y1="4525.12" x2="-4575.02" y2="4786.31" gradientTransform="matrix(0.31, -0.67, -0.67, -0.31, 4555.23, -2117.59)" gradientUnits="userSpaceOnUse"><stop offset="0" stop-color="#f69923"/><stop offset="0.11" stop-color="#f79a23"/><stop offset="0.95" stop-color="#e97826"/></linearGradient><linearGradient id="linear-gradient-2" x1="-4850.23" y1="4520.02" x2="-4583.91" y2="4777.71" gradientTransform="matrix(0.31, -0.67, -0.67, -0.31, 4555.23, -2117.59)" gradientUnits="userSpaceOnUse"><stop offset="0" stop-color="#f69923"/><stop offset="0.08" stop-color="#f79a23"/><stop offset="0.42" stop-color="#e97826"/></linearGradient><linearGradient id="linear-gradient-3" x1="-6052.24" y1="2894.2" x2="-6178.41" y2="2716.43" gradientTransform="matrix(0.32, -0.68, -0.68, -0.32, 4460.72, -2293.77)" gradientUnits="userSpaceOnUse"><stop offset="0" stop-color="#f6e423"/><stop offset="0.41" stop-color="#f79a23"/><stop offset="0.73" stop-color="#e97826"/></linearGradient></defs><title>camelk</title><g id="camelk"><g id="layer1"><g id="g4564"><g id="g4478"><circle id="path4222" class="cls-1" cx="113.06" cy="110.68" r="88.19"/></g><path id="path4491" class="cls-2" d="M91.62,73.09c-1.26,0-2.53,0-3.8,0a21.62,21.62,0,0,0-5.73,1.28c38.53,29.25,52.38,82,28.57,127.89.81,0,1.61.08,2.42.08a91.67,91.67,0,0,0,89.27-71C174.74,99.05,137.29,73.16,91.62,73.09Z"/><path id="path4496" class="cls-3" d="M82.09,74.41C69.3,78.72,44.9,93.88,21.44,114.13a91.67,91.67,0,0,0,89.22,88.17C134.47,156.44,120.62,103.66,82.09,74.41Z"/><g id="g4483"><path id="path4224-2" class="cls-4" d="M115.59,57.43a3.68,3.68,0,0,0-1.94.36c-7.89,4,0,19.75,0,19.75C90,97.3,95,131.05,67.32,131.05c-15.07,0-30.07-17.34-45.89-28-.2,2.51-.35,5-.35,7.59a92.23,92.23,0,0,0,47.21,80.49c7.88-1,15.74-3,21.65-6.92,31-20.68,38.72-60,51.4-79,7.89-11.86,44.89-10.83,47.39-15.83,4-7.9-7.91-19.74-11.86-19.74H145.26c-2.21,0-5.68-3.93-7.89-3.93H125.51S120.26,57.75,115.59,57.43Z"/></g></g></g></g></svg>