<svg xmlns="http://www.w3.org/2000/svg" xmlns:xlink="http://www.w3.org/1999/xlink" viewBox="0 0 220 220"><defs><style>.cls-1{fill:url(#linear-gradient);}.cls-2{fill:url(#linear-gradient-2);}</style><linearGradient id="linear-gradient" x1="-178.07" y1="472.22" x2="-172.07" y2="472.22" gradientTransform="matrix(15.82, 15.88, 15.88, -15.82, -4647.6, 10329.65)" gradientUnits="userSpaceOnUse"><stop offset="0" stop-color="#387eb8"/><stop offset="1" stop-color="#366994"/></linearGradient><linearGradient id="linear-gradient-2" x1="-175.96" y1="471.86" x2="-169.96" y2="471.86" gradientTransform="matrix(16.99, 16.28, 16.28, -16.99, -4601.96, 10974.93)" gradientUnits="userSpaceOnUse"><stop offset="0" stop-color="#ffe052"/><stop offset="1" stop-color="#ffc331"/></linearGradient></defs><title>python</title><g id="python"><path class="cls-1" d="M109.12,13.53c-48.72,0-45.66,21.12-45.66,21.12l.06,21.9H110v6.6H45s-31.2-3.54-31.2,45.66,27.24,47.46,27.24,47.46H57.34v-22.8s-.9-27.24,26.76-27.24h46.14s25.92.42,25.92-25V39.09S160.06,13.53,109.12,13.53ZM83.5,28.23a8.34,8.34,0,1,1-8.34,8.34A8.32,8.32,0,0,1,83.5,28.23Z"/><path class="cls-2" d="M110.56,204.51c48.72,0,45.72-21.12,45.72-21.12l-.06-21.9h-46.5v-6.6h64.92s31.2,3.54,31.2-45.66S178.6,61.77,178.6,61.77H162.34v22.8s.9,27.24-26.76,27.24H89.44s-25.92-.42-25.92,25V179S59.62,204.51,110.56,204.51Zm25.62-14.7a8.34,8.34,0,1,1,8.34-8.34A8.32,8.32,0,0,1,136.18,189.81Z"/></g></svg>