<svg xmlns="http://www.w3.org/2000/svg" viewBox="0 0 220 220"><defs><style>.cls-1{fill:#00599c;}.cls-2{fill:#004482;}.cls-3{fill:#659ad2;}.cls-4{fill:#fff;}</style></defs><title>cpp</title><g id="cpp"><path class="cls-1" d="M198.89,159.27a15.64,15.64,0,0,0,2.24-7.51v-84a15.58,15.58,0,0,0-2.24-7.5l-85.66,49.53Z"/><path class="cls-2" d="M120.84,207l72.67-42a15.56,15.56,0,0,0,5.38-5.69l-85.66-49.53L27.57,159.27A15.56,15.56,0,0,0,33,165l72.67,42A16.86,16.86,0,0,0,120.84,207Z"/><path class="cls-3" d="M198.89,60.2a15.56,15.56,0,0,0-5.38-5.69l-72.67-42a16.86,16.86,0,0,0-15.22,0L33,54.51a16.91,16.91,0,0,0-7.62,13.2v84.05a15.64,15.64,0,0,0,2.24,7.51l85.66-49.53Z"/><path class="cls-4" d="M113.23,168.42a58.69,58.69,0,1,1,50.74-88l-25.35,14.7a29.35,29.35,0,1,0,0,29.33L164,139.1A58.79,58.79,0,0,1,113.23,168.42Z"/><polygon class="cls-4" points="171.83 106.48 165.32 106.48 165.32 99.95 158.81 99.95 158.81 106.48 152.29 106.48 152.29 113 158.81 113 158.81 119.52 165.32 119.52 165.32 113 171.83 113 171.83 106.48"/><polygon class="cls-4" points="196.24 106.48 189.73 106.48 189.73 99.95 183.22 99.95 183.22 106.48 176.71 106.48 176.71 113 183.22 113 183.22 119.52 189.73 119.52 189.73 113 196.24 113 196.24 106.48"/></g></svg>