<svg xmlns="http://www.w3.org/2000/svg" viewBox="0 0 220 220"><defs><style>.cls-1{fill:#8cc84b;}</style></defs><title>nodejs</title><g id="node_js" data-name="node js"><path class="cls-1" d="M102.27,17.31a15.91,15.91,0,0,1,15.6,0l71.66,40.4A14.73,14.73,0,0,1,197,70.39v81a14.9,14.9,0,0,1-8,13L117.7,204.56a15.56,15.56,0,0,1-15.83-.44L80.48,191.76c-1.46-.87-3.1-1.56-4.13-3,.91-1.22,2.53-1.38,3.85-1.92a45.54,45.54,0,0,0,8.44-3.93,1.93,1.93,0,0,1,2.19.13l18.24,10.55c1.3.75,2.62-.24,3.74-.87l70-39.5a2.32,2.32,0,0,0,1.27-2.28V70.75a2.49,2.49,0,0,0-1.5-2.5l-71.1-40a2.47,2.47,0,0,0-2.79,0l-71,40.13a2.47,2.47,0,0,0-1.5,2.49V151a2.27,2.27,0,0,0,1.29,2.25l19,10.71c3.56,1.92,7.93,3,11.86,1.59a9,9,0,0,0,5.82-8.46l0-79.74a2,2,0,0,1,2.18-2h9.12a2.14,2.14,0,0,1,2,2.43l0,80.25c0,7.12-2.92,14.88-9.51,18.37-8.13,4.2-18.17,3.32-26.2-.72L31.3,164.4a14.68,14.68,0,0,1-8-13v-81A14.75,14.75,0,0,1,31,57.6Zm20.66,56.15c10.36-.6,21.46-.4,30.78,4.71,7.22,3.91,11.22,12.12,11.35,20.14a2.18,2.18,0,0,1-2.36,1.61c-3,0-6,0-9,0a2.33,2.33,0,0,1-2.18-2.26c-.87-3.84-3-7.64-6.57-9.49-5.55-2.78-12-2.64-18-2.58-4.41.24-9.16.62-12.9,3.21-2.88,2-3.74,6-2.71,9.13,1,2.3,3.61,3,5.78,3.72,12.49,3.27,25.72,3,38,7.24,5.07,1.76,10,5.16,11.77,10.47,2.27,7.12,1.28,15.63-3.78,21.34-4.1,4.7-10.08,7.2-16,8.65a77,77,0,0,1-24.23,1c-7.57-.86-15.46-2.85-21.31-8-5-4.35-7.44-11.12-7.2-17.64a2,2,0,0,1,2.22-1.79h9a2.12,2.12,0,0,1,2.16,2.1c.56,3.6,1.93,7.5,5.13,9.6,6.15,4,13.87,3.7,20.92,3.81,5.84-.25,12.39-.33,17.16-4.2,2.52-2.2,3.26-5.88,2.58-9-.74-2.68-3.6-3.92-6-4.8-12.33-3.9-25.71-2.49-37.92-6.9-5-1.76-9.75-5.07-11.65-10.16-2.66-7.2-1.44-16.12,4.15-21.64,5.4-5.49,13.32-7.61,20.82-8.37Z"/><path class="cls-1" d="M102.27,16.31a15.91,15.91,0,0,1,15.6,0l71.66,40.4A14.73,14.73,0,0,1,197,69.39v81a14.9,14.9,0,0,1-8,13L117.7,203.56a15.56,15.56,0,0,1-15.83-.44L80.48,190.76c-1.46-.87-3.1-1.56-4.13-3,.91-1.22,2.53-1.38,3.85-1.92a45.54,45.54,0,0,0,8.44-3.93,1.93,1.93,0,0,1,2.19.13l18.24,10.55c1.3.75,2.62-.24,3.74-.87l70-39.5a2.32,2.32,0,0,0,1.27-2.28V69.75a2.49,2.49,0,0,0-1.5-2.5l-71.1-40a2.47,2.47,0,0,0-2.79,0l-71,40.13a2.47,2.47,0,0,0-1.5,2.49V150a2.27,2.27,0,0,0,1.29,2.25l19,10.71c3.56,1.92,7.93,3,11.86,1.59a9,9,0,0,0,5.82-8.46l0-79.74a2,2,0,0,1,2.18-2h9.12a2.14,2.14,0,0,1,2,2.43l0,80.25c0,7.12-2.92,14.88-9.51,18.37-8.13,4.2-18.17,3.32-26.2-.72L31.3,163.4a14.68,14.68,0,0,1-8-13v-81A14.75,14.75,0,0,1,31,56.6Zm20.66,56.15c10.36-.6,21.46-.4,30.78,4.71,7.22,3.91,11.22,12.12,11.35,20.14a2.18,2.18,0,0,1-2.36,1.61c-3,0-6,0-9,0a2.33,2.33,0,0,1-2.18-2.26c-.87-3.84-3-7.64-6.57-9.49-5.55-2.78-12-2.64-18-2.58-4.41.24-9.16.62-12.9,3.21-2.88,2-3.74,6-2.71,9.13,1,2.3,3.61,3,5.78,3.72,12.49,3.27,25.72,3,38,7.24,5.07,1.76,10,5.16,11.77,10.47,2.27,7.12,1.28,15.63-3.78,21.34-4.1,4.7-10.08,7.2-16,8.65a77,77,0,0,1-24.23,1c-7.57-.86-15.46-2.85-21.31-8-5-4.35-7.44-11.12-7.2-17.64a2,2,0,0,1,2.22-1.79h9a2.12,2.12,0,0,1,2.16,2.1c.56,3.6,1.93,7.5,5.13,9.6,6.15,4,13.87,3.7,20.92,3.81,5.84-.25,12.39-.33,17.16-4.2,2.52-2.2,3.26-5.88,2.58-9-.74-2.68-3.6-3.92-6-4.8-12.33-3.9-25.71-2.49-37.92-6.9-5-1.76-9.75-5.07-11.65-10.16-2.66-7.2-1.44-16.12,4.15-21.64,5.4-5.49,13.32-7.61,20.82-8.37Z"/><path class="cls-1" d="M102.27,15.31a15.91,15.91,0,0,1,15.6,0l71.66,40.4A14.73,14.73,0,0,1,197,68.39v81a14.9,14.9,0,0,1-8,13L117.7,202.56a15.56,15.56,0,0,1-15.83-.44L80.48,189.76c-1.46-.87-3.1-1.56-4.13-3,.91-1.22,2.53-1.38,3.85-1.92a45.54,45.54,0,0,0,8.44-3.93,1.93,1.93,0,0,1,2.19.13l18.24,10.55c1.3.75,2.62-.24,3.74-.87l70-39.5a2.32,2.32,0,0,0,1.27-2.28V68.75a2.49,2.49,0,0,0-1.5-2.5l-71.1-40a2.47,2.47,0,0,0-2.79,0l-71,40.13a2.47,2.47,0,0,0-1.5,2.49V149a2.27,2.27,0,0,0,1.29,2.25l19,10.71c3.56,1.92,7.93,3,11.86,1.59a9,9,0,0,0,5.82-8.46l0-79.74a2,2,0,0,1,2.18-2h9.12a2.14,2.14,0,0,1,2,2.43l0,80.25c0,7.12-2.92,14.88-9.51,18.37-8.13,4.2-18.17,3.32-26.2-.72L31.3,162.4a14.68,14.68,0,0,1-8-13v-81A14.75,14.75,0,0,1,31,55.6Zm20.66,56.15c10.36-.6,21.46-.4,30.78,4.71,7.22,3.91,11.22,12.12,11.35,20.14a2.18,2.18,0,0,1-2.36,1.61c-3,0-6,0-9,0a2.33,2.33,0,0,1-2.18-2.26c-.87-3.84-3-7.64-6.57-9.49-5.55-2.78-12-2.64-18-2.58-4.41.24-9.16.62-12.9,3.21-2.88,2-3.74,6-2.71,9.13,1,2.3,3.61,3,5.78,3.72,12.49,3.27,25.72,3,38,7.24,5.07,1.76,10,5.16,11.77,10.47,2.27,7.12,1.28,15.63-3.78,21.34-4.1,4.7-10.08,7.2-16,8.65a77,77,0,0,1-24.23,1c-7.57-.86-15.46-2.85-21.31-8-5-4.35-7.44-11.12-7.2-17.64a2,2,0,0,1,2.22-1.79h9a2.12,2.12,0,0,1,2.16,2.1c.56,3.6,1.93,7.5,5.13,9.6,6.15,4,13.87,3.7,20.92,3.81,5.84-.25,12.39-.33,17.16-4.2,2.52-2.2,3.26-5.88,2.58-9-.74-2.68-3.6-3.92-6-4.8-12.33-3.9-25.71-2.49-37.92-6.9-5-1.76-9.75-5.07-11.65-10.16-2.66-7.2-1.44-16.12,4.15-21.64,5.4-5.49,13.32-7.61,20.82-8.37Z"/><path class="cls-1" d="M102.27,14.31a15.91,15.91,0,0,1,15.6,0l71.66,40.4A14.73,14.73,0,0,1,197,67.39v81a14.9,14.9,0,0,1-8,13L117.7,201.56a15.56,15.56,0,0,1-15.83-.44L80.48,188.76c-1.46-.87-3.1-1.56-4.13-3,.91-1.22,2.53-1.38,3.85-1.92a45.54,45.54,0,0,0,8.44-3.93,1.93,1.93,0,0,1,2.19.13l18.24,10.55c1.3.75,2.62-.24,3.74-.87l70-39.5a2.32,2.32,0,0,0,1.27-2.28V67.75a2.49,2.49,0,0,0-1.5-2.5l-71.1-40a2.47,2.47,0,0,0-2.79,0l-71,40.13a2.47,2.47,0,0,0-1.5,2.49V148a2.27,2.27,0,0,0,1.29,2.25l19,10.71c3.56,1.92,7.93,3,11.86,1.59a9,9,0,0,0,5.82-8.46l0-79.74a2,2,0,0,1,2.18-2h9.12a2.14,2.14,0,0,1,2,2.43l0,80.25c0,7.12-2.92,14.88-9.51,18.37-8.13,4.2-18.17,3.32-26.2-.72L31.3,161.4a14.68,14.68,0,0,1-8-13v-81A14.75,14.75,0,0,1,31,54.6Zm20.66,56.15c10.36-.6,21.46-.4,30.78,4.71,7.22,3.91,11.22,12.12,11.35,20.14a2.18,2.18,0,0,1-2.36,1.61c-3,0-6,0-9,0a2.33,2.33,0,0,1-2.18-2.26c-.87-3.84-3-7.64-6.57-9.49-5.55-2.78-12-2.64-18-2.58-4.41.24-9.16.62-12.9,3.21-2.88,2-3.74,6-2.71,9.13,1,2.3,3.61,3,5.78,3.72,12.49,3.27,25.72,3,38,7.24,5.07,1.76,10,5.16,11.77,10.47,2.27,7.12,1.28,15.63-3.78,21.34-4.1,4.7-10.08,7.2-16,8.65a77,77,0,0,1-24.23,1c-7.57-.86-15.46-2.85-21.31-8-5-4.35-7.44-11.12-7.2-17.64a2,2,0,0,1,2.22-1.79h9a2.12,2.12,0,0,1,2.16,2.1c.56,3.6,1.93,7.5,5.13,9.6,6.15,4,13.87,3.7,20.92,3.81,5.84-.25,12.39-.33,17.16-4.2,2.52-2.2,3.26-5.88,2.58-9-.74-2.68-3.6-3.92-6-4.8-12.33-3.9-25.71-2.49-37.92-6.9-5-1.76-9.75-5.07-11.65-10.16-2.66-7.2-1.44-16.12,4.15-21.64,5.4-5.49,13.32-7.61,20.82-8.37Z"/></g></svg>