<svg xmlns="http://www.w3.org/2000/svg" xmlns:xlink="http://www.w3.org/1999/xlink" viewBox="0 0 220 220"><defs><style>.cls-1{fill:none;}.cls-2{clip-path:url(#clip-path);}.cls-3{fill:url(#radial-gradient);}.cls-4{clip-path:url(#clip-path-2);}.cls-5{fill:#777bb3;}.cls-6,.cls-7{fill:#fff;}.cls-6{stroke:#fff;stroke-miterlimit:10;stroke-width:0.5px;}</style><clipPath id="clip-path"><path class="cls-1" d="M14.45,104.86c0,27.9,43,50.48,96,50.48s96-22.58,96-50.48-43-50.47-96-50.47-96,22.57-96,50.47"/></clipPath><radialGradient id="radial-gradient" cx="-710.57" cy="80.89" r="0.28" gradientTransform="translate(403167.23 -45814.62) scale(567.28)" gradientUnits="userSpaceOnUse"><stop offset="0" stop-color="#aeb2d5"/><stop offset="0.3" stop-color="#aeb2d5"/><stop offset="0.75" stop-color="#484c89"/><stop offset="1" stop-color="#484c89"/></radialGradient><clipPath id="clip-path-2"><rect class="cls-1" x="-14.5" y="34.59" width="249.9" height="140.55"/></clipPath></defs><title>php</title><g id="php"><g id="g3440"><g class="cls-2"><g id="g3442"><g id="g3448"><g id="g3450"><path id="path3462" class="cls-3" d="M14.45,104.86c0,27.9,43,50.48,96,50.48s96-22.58,96-50.48-43-50.47-96-50.47-96,22.57-96,50.47"/></g></g></g></g></g><g class="cls-4"><g id="g3466"><g id="g3472"><path id="path3474" class="cls-5" d="M110.45,151.59c50.93,0,92.25-20.93,92.25-46.73s-41.32-46.72-92.25-46.72S18.2,79.06,18.2,104.86s41.33,46.73,92.25,46.73"/></g></g></g><path class="cls-6" d="M177.2,86.11a19.5,19.5,0,0,0-15.45-5.7H140.53a2,2,0,0,0-2,1.65l-1.85,9.53a10.22,10.22,0,0,0-3-7.35,20.49,20.49,0,0,0-14.1-3.75h-7.2l2.1-10.95a2.08,2.08,0,0,0-.45-1.73A1.94,1.94,0,0,0,112.4,67h-11a2,2,0,0,0-2,1.65L94.56,93.72a14.68,14.68,0,0,0-3.38-7.61,19.51,19.51,0,0,0-15.45-5.7H54.5a2,2,0,0,0-2,1.65l-9.83,50.63a2.06,2.06,0,0,0,.45,1.72,2.11,2.11,0,0,0,1.58.75h11a2,2,0,0,0,2-1.65l2.32-11.77h7.73a35.27,35.27,0,0,0,11-1.43,21.54,21.54,0,0,0,8.1-4.87,23.84,23.84,0,0,0,4.64-5.8l-1.87,9.62a2.09,2.09,0,0,0,.45,1.73,2.18,2.18,0,0,0,1.58.75h11a2,2,0,0,0,2-1.65l5.33-27.3h7c3.22,0,3.9.67,4,.75.23.22.45,1.2,0,3.37l-4.35,22.35a2.09,2.09,0,0,0,.45,1.73,2.18,2.18,0,0,0,1.58.75h11.1a2.18,2.18,0,0,0,1.15-.4l-2.2,11.35a2,2,0,0,0,.45,1.72,2.07,2.07,0,0,0,1.57.75h11a2,2,0,0,0,2-1.65L146,121.74h7.73a35.27,35.27,0,0,0,11-1.43,21.54,21.54,0,0,0,8.1-4.87,22.51,22.51,0,0,0,4.87-6.15,24.37,24.37,0,0,0,2.7-7.43A17.69,17.69,0,0,0,177.2,86.11ZM79,100.36a11.65,11.65,0,0,1-3.6,7.13,14.58,14.58,0,0,1-8.62,2.1h-4.2l3.22-17H71.6c4.65,0,6.3,1,6.83,1.65A7.89,7.89,0,0,1,79,100.36Zm86,0a11.7,11.7,0,0,1-3.6,7.13,14.61,14.61,0,0,1-8.63,2.1h-4.2l3.23-17h5.85c4.65,0,6.3,1,6.82,1.65A7.85,7.85,0,0,1,165,100.36Z"/><g id="g3484"><path id="path3486" d="M66.65,110.64a14.9,14.9,0,0,0,9.3-2.33,12.65,12.65,0,0,0,4-7.72,8.36,8.36,0,0,0-.75-7,10.65,10.65,0,0,0-7.57-2H65l-3.67,19.12h5.32Zm-21.9,23.55a1.21,1.21,0,0,1-.82-.38.84.84,0,0,1-.23-.82l9.83-50.63a1,1,0,0,1,1-.82H75.8a18.39,18.39,0,0,1,14.7,5.4,16.62,16.62,0,0,1,2.85,14.92,23.65,23.65,0,0,1-2.55,7,23,23,0,0,1-4.72,5.85,21,21,0,0,1-7.73,4.65,35,35,0,0,1-10.57,1.35H59.23l-2.48,12.6a1,1,0,0,1-1,.83Z"/></g><g id="g3488"><path id="path3490" class="cls-7" d="M65.75,92.56H71.6c4.65,0,6.3,1,6.83,1.65a7.89,7.89,0,0,1,.52,6.15,11.65,11.65,0,0,1-3.6,7.13,14.58,14.58,0,0,1-8.62,2.1h-4.2Zm10-12.15H54.5a2,2,0,0,0-2,1.65l-9.83,50.63a2.06,2.06,0,0,0,.45,1.72,2.11,2.11,0,0,0,1.58.75h11a2,2,0,0,0,2-1.65l2.32-11.77h7.73a35.27,35.27,0,0,0,11-1.43,21.54,21.54,0,0,0,8.1-4.87,23.74,23.74,0,0,0,4.87-6.15,22.37,22.37,0,0,0,2.63-7.43,17.7,17.7,0,0,0-3.15-15.75,19.51,19.51,0,0,0-15.45-5.7M59.9,111.69h6.68a16.37,16.37,0,0,0,9.9-2.48,13.28,13.28,0,0,0,4.42-8.4,9.23,9.23,0,0,0-1-8,11.24,11.24,0,0,0-8.4-2.32H64L59.9,111.69M75.73,82.51a17.53,17.53,0,0,1,14,5,15.67,15.67,0,0,1,2.62,14,21.61,21.61,0,0,1-2.4,6.75,22.45,22.45,0,0,1-4.5,5.63,20.17,20.17,0,0,1-7.35,4.42,33,33,0,0,1-10.27,1.35H58.33L55.7,133.14h-11L54.5,82.51H75.73"/></g><g id="g3492"><path id="path3494" d="M118.63,120.69a1.24,1.24,0,0,1-.83-.38.83.83,0,0,1-.22-.82l4.35-22.35c.45-2.1.3-3.68-.3-4.28-.38-.37-1.5-1-4.73-1H109l-5.48,28.13a1,1,0,0,1-1,.82h-11a1.2,1.2,0,0,1-.82-.37.85.85,0,0,1-.23-.83l9.83-50.62a1,1,0,0,1,1-.83h11a1.17,1.17,0,0,1,.82.38.84.84,0,0,1,.23.82L111,81.54h8.47A19.63,19.63,0,0,1,132.8,85a11.53,11.53,0,0,1,2.4,11.32l-4.57,23.55a1,1,0,0,1-1,.83Z"/></g><g id="g3496"><path id="path3498" class="cls-7" d="M112.4,67h-11a2,2,0,0,0-2,1.65L89.6,119.26a2.09,2.09,0,0,0,.45,1.73,2.18,2.18,0,0,0,1.58.75h11a2,2,0,0,0,2-1.65l5.33-27.3h7c3.22,0,3.9.67,4,.75.23.22.45,1.2,0,3.37l-4.35,22.35a2.09,2.09,0,0,0,.45,1.73,2.18,2.18,0,0,0,1.58.75h11.1a2,2,0,0,0,2-1.65l4.58-23.55a12.6,12.6,0,0,0-2.7-12.3,20.44,20.44,0,0,0-14.1-3.75h-7.2l2.1-10.95a2.08,2.08,0,0,0-.45-1.73A1.94,1.94,0,0,0,112.4,67m0,2.1-2.62,13.42h9.75a18.65,18.65,0,0,1,12.67,3.23,10.74,10.74,0,0,1,2.1,10.42l-4.57,23.55h-11.1L123,97.36a6,6,0,0,0-.53-5.17A7.74,7.74,0,0,0,117,90.76H108.2l-5.62,28.95h-11l9.82-50.62h11"/></g><g id="g3500"><path id="path3502" d="M152.6,110.64a14.9,14.9,0,0,0,9.3-2.33,12.65,12.65,0,0,0,4-7.72,8.36,8.36,0,0,0-.75-7,10.65,10.65,0,0,0-7.57-2H151l-3.67,19.12h5.32Zm-21.82,23.55a1.24,1.24,0,0,1-.83-.38.83.83,0,0,1-.22-.82l9.82-50.63a1,1,0,0,1,1-.82h21.23a18.39,18.39,0,0,1,14.7,5.4,16.68,16.68,0,0,1,2.85,14.92,24.22,24.22,0,0,1-2.55,7,23,23,0,0,1-4.73,5.85,21,21,0,0,1-7.72,4.65,35,35,0,0,1-10.58,1.35h-8.55l-2.47,12.6a1,1,0,0,1-1.05.83Z"/></g><g id="g3504"><path id="path3506" class="cls-7" d="M151.78,92.56h5.85c4.65,0,6.3,1,6.82,1.65a7.85,7.85,0,0,1,.53,6.15,11.7,11.7,0,0,1-3.6,7.13,14.61,14.61,0,0,1-8.63,2.1h-4.2Zm10-12.15H140.53a2,2,0,0,0-2,1.65l-9.82,50.63a2,2,0,0,0,.45,1.72,2.07,2.07,0,0,0,1.57.75h11a2,2,0,0,0,2-1.65L146,121.74h7.73a35.27,35.27,0,0,0,11-1.43,21.54,21.54,0,0,0,8.1-4.87,22.51,22.51,0,0,0,4.87-6.15,24.37,24.37,0,0,0,2.7-7.43,17.7,17.7,0,0,0-3.15-15.75,19.5,19.5,0,0,0-15.45-5.7m-15.82,31.28h6.67a16.37,16.37,0,0,0,9.9-2.48,13.29,13.29,0,0,0,4.43-8.4,9.23,9.23,0,0,0-1-8,11.23,11.23,0,0,0-8.4-2.32H150l-4,21.15m15.82-29.18a17.51,17.51,0,0,1,13.95,5,15.67,15.67,0,0,1,2.63,14,22.13,22.13,0,0,1-2.4,6.75,22.68,22.68,0,0,1-4.5,5.63,20.25,20.25,0,0,1-7.35,4.42,33.11,33.11,0,0,1-10.28,1.35h-9.45l-2.62,13.43h-11l9.83-50.63h21.22"/></g></g></svg>