<svg xmlns="http://www.w3.org/2000/svg" viewBox="0 0 220 220"><title>svg_logos_sized</title><g id="rust"><path id="path3" d="M206.42,107.42l-8.21-5.08c-.07-.8-.15-1.6-.23-2.39L205,93.37a2.83,2.83,0,0,0-.94-4.71l-9-3.38c-.23-.78-.47-1.55-.71-2.32L200,75.14a2.83,2.83,0,0,0-1.84-4.44l-9.51-1.54c-.37-.72-.75-1.43-1.14-2.14l4-8.77a2.82,2.82,0,0,0-2.66-4l-9.65.33c-.5-.62-1-1.24-1.53-1.85l2.22-9.4a2.82,2.82,0,0,0-3.4-3.39l-9.4,2.21c-.61-.51-1.22-1-1.85-1.52l.34-9.65a2.82,2.82,0,0,0-4-2.67l-8.77,4c-.71-.38-1.42-.77-2.14-1.14l-1.55-9.51a2.82,2.82,0,0,0-4.44-1.84l-7.81,5.63c-.77-.25-1.55-.48-2.33-.71l-3.37-9a2.8,2.8,0,0,0-2.09-1.78,2.84,2.84,0,0,0-2.62.84l-6.58,7.06-2.39-.23-5.08-8.21a2.82,2.82,0,0,0-4.8,0l-5.08,8.21-2.4.23-6.58-7.06a2.83,2.83,0,0,0-4.71.94l-3.37,9c-.78.23-1.55.46-2.33.71l-7.81-5.63a2.82,2.82,0,0,0-4.44,1.84l-1.55,9.51c-.72.37-1.43.75-2.14,1.14l-8.76-4a2.83,2.83,0,0,0-4,2.67l.34,9.65c-.63.5-1.24,1-1.85,1.52L43.53,40a2.82,2.82,0,0,0-3.4,3.39l2.21,9.4c-.51.61-1,1.23-1.52,1.85l-9.65-.33a2.82,2.82,0,0,0-2.67,4l4,8.77c-.39.71-.77,1.42-1.15,2.14l-9.5,1.54A2.82,2.82,0,0,0,20,75.14L25.63,83c-.24.77-.48,1.54-.7,2.32l-9,3.38a2.8,2.8,0,0,0-1.78,2.09A2.85,2.85,0,0,0,15,93.37L22,100c-.09.79-.17,1.59-.24,2.39l-8.2,5.08a2.82,2.82,0,0,0,0,4.8l8.2,5.08c.07.8.15,1.6.24,2.39L15,126.27a2.85,2.85,0,0,0-.84,2.62A2.8,2.8,0,0,0,15.91,131l9,3.38c.22.78.46,1.55.7,2.32L20,144.5a2.81,2.81,0,0,0,1.84,4.43l9.5,1.55c.38.72.76,1.43,1.15,2.14l-4,8.77a2.82,2.82,0,0,0,2.67,4l9.65-.34c.5.63,1,1.25,1.52,1.86l-2.21,9.4a2.82,2.82,0,0,0,3.4,3.39l9.4-2.21c.61.52,1.22,1,1.85,1.52l-.34,9.65a2.81,2.81,0,0,0,1.26,2.45,2.84,2.84,0,0,0,2.74.22l8.76-4,2.14,1.15,1.55,9.5a2.82,2.82,0,0,0,4.44,1.84l7.81-5.63c.77.25,1.55.49,2.33.71l3.37,9a2.82,2.82,0,0,0,4.71.93l6.58-7.05,2.39.24,5.09,8.2a2.82,2.82,0,0,0,4.8,0l5.08-8.2c.8-.08,1.6-.15,2.39-.24l6.58,7.05a2.82,2.82,0,0,0,4.71-.93l3.37-9c.78-.22,1.56-.46,2.33-.71l7.81,5.63a2.82,2.82,0,0,0,4.44-1.84l1.55-9.5,2.14-1.15,8.76,4a2.83,2.83,0,0,0,4-2.67l-.34-9.65c.62-.5,1.24-1,1.85-1.52l9.4,2.21a2.83,2.83,0,0,0,3.4-3.39l-2.22-9.4c.52-.61,1-1.23,1.52-1.86l9.65.34a2.82,2.82,0,0,0,2.67-4l-4-8.77c.39-.71.77-1.42,1.14-2.14l9.51-1.55A2.82,2.82,0,0,0,200,144.5l-5.62-7.82c.24-.77.48-1.54.71-2.32l9-3.38a2.83,2.83,0,0,0,.94-4.71L198,119.69c.08-.79.16-1.59.23-2.39l8.21-5.08a2.83,2.83,0,0,0,0-4.8Zm-54.94,68.09a5.82,5.82,0,1,1,6.9-4.47A5.82,5.82,0,0,1,151.48,175.51Zm-2.78-18.87a5.3,5.3,0,0,0-6.29,4.08l-2.91,13.59A71.69,71.69,0,0,1,79.89,174L77,160.43a5.3,5.3,0,0,0-6.29-4.07l-12,2.58a72.32,72.32,0,0,1-6.21-7.32h58.41c.67,0,1.11-.12,1.11-.72V130.24c0-.6-.44-.72-1.11-.72H93.81v-13.1h18.48c1.68,0,9,.48,11.36,9.85.73,2.88,2.35,12.26,3.45,15.26,1.1,3.37,5.57,10.09,10.33,10.09h29.11a6.75,6.75,0,0,0,1.06-.1,72.11,72.11,0,0,1-6.62,7.76l-12.28-2.64ZM67.9,175.22a5.81,5.81,0,1,1,4.46-6.9A5.79,5.79,0,0,1,67.9,175.22ZM45.75,85.37a5.81,5.81,0,1,1-7.67-3A5.82,5.82,0,0,1,45.75,85.37Zm-6.82,16.14L51.44,96a5.29,5.29,0,0,0,2.69-7l-2.57-5.82H61.69v45.65H41.25a71.59,71.59,0,0,1-2.72-19.6A74.78,74.78,0,0,1,38.93,101.51Zm54.88-4.43V83.62h24.13c1.24,0,8.79,1.44,8.79,7.08,0,4.69-5.79,6.37-10.55,6.37H93.81Zm87.67,12.11c0,1.78-.07,3.55-.2,5.31H174c-.73,0-1,.48-1,1.2v3.36c0,7.93-4.47,9.66-8.39,10.1-3.73.42-7.86-1.57-8.37-3.85-2.2-12.38-5.87-15-11.66-19.59,7.19-4.56,14.66-11.29,14.66-20.3,0-9.73-6.67-15.86-11.21-18.87a31.84,31.84,0,0,0-15.35-5H56.76a71.36,71.36,0,0,1,40-22.57l8.94,9.38a5.3,5.3,0,0,0,7.49.17l10-9.57A71.52,71.52,0,0,1,172.1,73.77l-6.85,15.47a5.31,5.31,0,0,0,2.7,7l13.18,5.86c.23,2.34.35,4.7.35,7.1ZM105.69,31a5.81,5.81,0,1,1-.19,8.22A5.8,5.8,0,0,1,105.69,31Zm67.95,54.69a5.81,5.81,0,1,1,3,7.67A5.8,5.8,0,0,1,173.64,85.65Z"/></g></svg>