<svg xmlns="http://www.w3.org/2000/svg" xmlns:xlink="http://www.w3.org/1999/xlink" viewBox="0 0 220 220"><defs><style>.cls-1{fill:none;}.cls-2{clip-path:url(#clip-path);}.cls-3{fill:#2b7de1;}.cls-4{clip-path:url(#clip-path-2);}.cls-5{clip-path:url(#clip-path-3);}.cls-6{opacity:0.4;}.cls-7{fill:#231f20;}.cls-8{fill:#fff;}</style><clipPath id="clip-path"><polyline class="cls-1" points="996.72 558.15 -6.48 558.15 -6.48 -217.05 996.72 -217.05"/></clipPath><clipPath id="clip-path-2"><path class="cls-1" d="M103.09,11.8,31.94,52.88A17.4,17.4,0,0,0,23.24,68h0v82.16a17.4,17.4,0,0,0,8.7,15.07h0l71.15,41.08a17.44,17.44,0,0,0,17.4,0h0l71.15-41.08a17.42,17.42,0,0,0,8.7-15.07h0V68a17.42,17.42,0,0,0-8.7-15.07h0L120.49,11.8a17.44,17.44,0,0,0-8.7-2.33h0a17.41,17.41,0,0,0-8.7,2.33"/></clipPath><clipPath id="clip-path-3"><rect class="cls-1" x="48.3" y="54.38" width="260.05" height="242.38"/></clipPath></defs><title>mainframe</title><g id="mainframe"><g id="g10"><g id="g12"><g class="cls-2"><g id="g14"><g id="g20"><path id="path22" class="cls-3" d="M191.64,52.88,120.49,11.81a17.39,17.39,0,0,0-17.4,0L31.94,52.88A17.4,17.4,0,0,0,23.24,68v82.16a17.39,17.39,0,0,0,8.7,15.07l71.15,41.08a17.44,17.44,0,0,0,17.4,0l71.15-41.08a17.41,17.41,0,0,0,8.7-15.07V68a17.42,17.42,0,0,0-8.7-15.07"/></g></g></g></g><g id="g24"><g class="cls-4"><g id="g26"><g id="g32"><g id="g46"><g class="cls-5"><g id="g44" class="cls-6"><g id="g42"><path id="path40" class="cls-7" d="M308.22,205v-.06l-.14-.07v-.06l-.13-.08v-.05l-.13-.08v-.06l-.14-.07v-.06l-.13-.08v0l-.13-.08v-.05l-.14-.08V204l-.13-.07v-.06l-.13-.08v0l-.13-.08v-.06l-.14-.07v-.06l-.13-.08v0l-.13-.08v-.06l-.14-.07v-.06l-.13-.07v-.06l-.13-.08v-.05l-.13-.08v-.06l-.14-.07v-.06l-.13-.08v-.05l-.13-.08v-.05l-.14-.08v-.06l-.13-.08V202l-.13-.08v-.05l-.14-.08v-.06l-.13-.07v-.06l-.13-.08v-.05l-.13-.08v-.06l-.14-.07v-.06l-.13-.08v0l-.13-.08V201l-.14-.08v-.06l-.13-.07v-.06l-.13-.08v0l-.13-.08v-.06l-.14-.07v-.06l-.13-.08v0l-.13-.08V200l-.14-.07v-.06l-.13-.07v-.06l-.13-.08v0l-.13-.08v-.06l-.14-.07v-.06l-.13-.08v-.05l-.13-.08v-.06l-.14-.07V199l-.13-.08v-.05l-.13-.08v-.05l-.14-.08v-.06l-.13-.07v-.06l-.13-.08v-.05l-.13-.08v-.06l-.14-.07V198l-.13-.08v-.05l-.13-.08v-.06l-.14-.07v-.06l-.13-.07v-.06l-.13-.08v0l-.13-.08v-.06l-.14-.07v-.06l-.13-.08v0l-.13-.08v-.06l-.14-.07v-.06l-.13-.08v-.05l-.13-.08v0l-.14-.08v-.06l-.13-.07v-.06l-.13-.08V196l-.13-.08v-.06l-.14-.07v-.06l-.13-.08v-.05l-.13-.08v-.06l-.14-.07v-.06l-.13-.08v-.05l-.13-.08v-.05l-.13-.08V195l-.14-.07v-.06l-.13-.08v-.05l-.13-.08v-.06l-.14-.07v-.06l-.13-.08v0l-.13-.08v-.06l-.14-.07V194l-.13-.07v-.06l-.13-.08v0l-.13-.08v-.06l-.14-.07v-.06l-.13-.08v0l-.13-.08v0l-.14-.08v-.06l-.13-.08V193l-.13-.08v0l-.14-.08v-.06l-.13-.07v-.06l-.13-.08v-.05l-.13-.08v-.06l-.14-.07v-.06l-.13-.07V192l-.13-.08v-.05l-.14-.08v-.06l-.13-.07v-.06l-.13-.08v-.05l-.13-.08v-.06l-.14-.07v-.06l-.13-.08v0l-.13-.08V191l-.14-.08v-.06l-.13-.07v-.06l-.13-.08v0l-.14-.08v-.06l-.13-.07v-.06l-.13-.08v0l-.13-.08V190l-.14-.07v-.06l-.13-.08v-.05l-.13-.08v0l-.14-.08v-.06l-.13-.07v-.06l-.13-.08v-.05l-.13-.08v-.06l-.14-.07V189l-.13-.08v-.05l-.13-.08v-.06l-.14-.07v-.06l-.13-.07v-.06l-.13-.08v-.05l-.13-.08v-.06l-.14-.07v-.06l-.13-.08v-.05l-.13-.08v-.06l-.14-.07v-.06l-.13-.08v0l-.13-.08v-.05l-.14-.08v-.06l-.13-.07v-.06l-.13-.08v0l-.13-.08v-.06l-.14-.07v-.06l-.13-.08v0l-.13-.08v-.06l-.14-.07v-.06l-.13-.07v-.06l-.13-.08v-.05l-.13-.08v-.06l-.14-.07v-.06l-.13-.08v-.05l-.13-.08v-.06l-.14-.07v-.06l-.13-.08v-.05l-.13-.08v-.05l-.14-.08V185l-.13-.07v-.06l-.13-.08v-.05l-.13-.08v-.06l-.14-.07v-.06l-.13-.08v0l-.13-.08v-.06l-.14-.07v-.06l-.13-.08v0l-.13-.08v0l-.13-.08v-.06l-.14-.07v-.06l-.13-.08v0l-.13-.08v-.06l-.14-.07v-.06l-.13-.08V183l-.13-.08v-.06l-.14-.07v-.06l-.13-.07v-.06l-.13-.08v-.05l-.13-.08v-.06l-.14-.07v-.06l-.13-.08v-.05l-.13-.08v-.05l-.14-.08v-.06l-.13-.08v-.05l-.13-.08v-.05l-.14-.08v-.06l-.13-.07v-.06l-.13-.08v-.05l-.13-.08V181l-.14-.07v-.06l-.13-.07v-.06l-.13-.08v0l-.13-.08v-.06l-.14-.07v-.06l-.13-.08v0l-.13-.08v-.06l-.14-.07v-.06l-.13-.08v-.05l-.13-.08v0l-.14-.08v-.06l-.13-.07v-.06l-.13-.08v-.05l-.13-.08v-.06l-.14-.07V179l-.13-.08v-.05l-.13-.08v-.06l-.14-.07v-.06l-.13-.08v-.05l-.13-.08v-.05l-.14-.08v-.06l-.13-.07v-.06l-.13-.08V178l-.13-.08v-.06l-.14-.07v-.06l-.13-.08v0l-.13-.08v-.06l-.14-.07v-.06l-.13-.07v-.06l-.13-.08v0l-.13-.08v-.06l-.14-.07v-.06l-.13-.08v0l-.13-.08v-.06l-.14-.07v-.06l-.13-.08v-.05l-.13-.08v0l-.14-.08V176l-.13-.07v-.06l-.13-.08v-.05l-.13-.08v-.06l-.14-.07v-.06l-.13-.08v-.05l-.13-.08v-.06l-.14-.07V175l-.13-.07v-.06l-.13-.08v-.05l-.13-.08v-.06l-.14-.07v-.06l-.13-.08v0l-.13-.08v-.06l-.14-.07v-.06l-.13-.08v0l-.13-.08v0l-.14-.08v-.06l-.13-.07v-.06l-.13-.08v0l-.13-.08v-.06l-.14-.07v-.06l-.13-.08V173l-.13-.08v-.06l-.14-.07v-.06l-.13-.08v-.05l-.13-.08v-.05l-.14-.08v-.06l-.13-.07v-.06l-.13-.08v-.05l-.13-.08V172l-.14-.07v-.06l-.13-.08v-.05l-.13-.08v-.06l-.14-.07v-.06l-.13-.07v-.06l-.13-.08v-.05l-.13-.08V171l-.14-.07v-.06l-.13-.08v0l-.13-.08v-.05l-.14-.08v-.06l-.13-.08v0l-.13-.08v0l-.14-.08v-.06l-.13-.07V170l-.13-.08v0l-.13-.08v-.06l-.14-.07v-.06l-.13-.07v-.06l-.13-.08v-.05l-.13-.08v-.06l-.14-.07V169l-.13-.08v-.05l-.13-.08v-.06l-.14-.07v-.06l-.13-.08v-.05l-.13-.08v-.05l-.14-.08v-.06l-.13-.07v-.06l-.13-.08V168l-.13-.08v-.06l-.14-.07v-.06l-.13-.08v0l-.13-.08v-.06l-.14-.07v-.06l-.13-.08v0l-.13-.08v0l-.14-.08v-.06l-.13-.07v-.06l-.13-.08v0l-.13-.08v-.06l-.14-.07v-.06l-.13-.08v-.05l-.13-.08v-.06l-.14-.07V166l-.13-.07v-.06l-.13-.08v-.05l-.13-.08v-.06l-.14-.07v-.06l-.13-.08v-.05l-.13-.08v-.06l-.14-.07v-.06l-.13-.08v-.05l-.13-.08v-.05l-.14-.08v-.06l-.13-.07v-.06l-.13-.08v-.05l-.13-.08v-.06l-.14-.07v-.06l-.13-.08v0l-.13-.08v-.06l-.14-.07v-.06l-.13-.07v-.06l-.13-.08v0l-.13-.08v-.06l-.14-.07v-.06l-.13-.08v-.05l-.13-.08v-.06l-.14-.07v-.06l-.13-.08v-.05l-.13-.08v-.05l-.14-.08v-.06l-.13-.07v-.06l-.13-.08v-.05l-.13-.08V162l-.14-.07v-.06l-.13-.08v-.05l-.13-.08v-.06l-.14-.07v-.06l-.13-.08v0l-.13-.08v-.05l-.14-.08v-.06l-.13-.07v-.06l-.13-.08v0l-.13-.08v-.06l-.14-.07v-.06l-.13-.08v0l-.13-.08v0l-.14-.08v-.06l-.13-.07V160l-.13-.08v0l-.13-.08v-.06l-.14-.07v-.06l-.13-.08v-.05l-.13-.08v0l-.14-.08v-.06l-.13-.07v-.06l-.13-.08v-.05l-.14-.08v-.06l-.13-.07v-.06l-.13-.08v-.05l-.13-.08v-.06l-.14-.07v-.06l-.13-.07v-.06l-.13-.08V158l-.13-.08v-.06l-.14-.07v-.06l-.13-.08v0l-.13-.08v-.06l-.14-.07v-.06l-.13-.08v0l-.13-.08v0l-.14-.08v-.06l-.13-.07v-.06l-.13-.08v0l-.13-.08v-.06l-.14-.07v-.06l-.13-.08v-.05l-.13-.08v-.06l-.14-.07V156l-.13-.08v-.05l-.13-.08v-.05l-.14-.08v-.06l-.13-.07v-.06l-.13-.08v-.05l-.13-.08v-.06l-.14-.07v-.06l-.13-.08V155l-.13-.08v-.06l-.14-.07v-.06l-.13-.07v-.06l-.13-.08v-.05l-.13-.08v-.06l-.14-.07v-.06l-.13-.08v0l-.13-.08v-.06l-.14-.07v-.06l-.13-.08v0l-.13-.08v0l-.14-.08v-.06l-.13-.07v-.06l-.13-.08v0l-.13-.08V153l-.14-.07v-.06l-.13-.08v-.05l-.13-.08v-.06l-.14-.07v-.06l-.13-.07v-.06l-.13-.08v-.05l-.13-.08V152l-.14-.07v-.06l-.13-.08v-.05l-.13-.08v-.05l-.14-.08v-.06l-.13-.08v0l-.13-.08v-.05l-.14-.08v-.06l-.13-.07V151l-.13-.08v0l-.13-.08v-.06l-.14-.07v-.06l-.13-.08v0l-.13-.08v0l-.14-.08v-.06l-.13-.08V150l-.13-.08v0l-.13-.08v-.06l-.14-.07v-.06l-.13-.08v-.05l-.13-.08v-.06l-.14-.07v-.06l-.13-.07v-.06l-.13-.08V149l-.14-.08v-.06l-.13-.07v-.06l-.13-.08v-.05l-.13-.08v-.06l-.14-.07v-.06l-.13-.08v-.05l-.13-.08V148l-.14-.08v-.06l-.13-.07v-.06l-.13-.08v-.05l-.14-.08v-.06l-.13-.07v-.06l-.13-.08v0l-.13-.08v-.06l-.14-.07V147l-.13-.08v0l-.13-.08v0l-.13-.08v-.06l-.14-.07v-.06l-.13-.08v-.05l-.13-.08v-.06l-.14-.07V146l-.13-.08v-.05l-.13-.08v-.05l-.14-.08v-.06l-.13-.07v-.06l-.13-.08v-.05l-.13-.08v-.06l-.14-.07v-.06l-.13-.08V145l-.13-.08v-.06l-.14-.07v-.06l-.13-.08v0l-.13-.08v-.05l-.14-.08v-.06l-.13-.07v-.06l-.13-.08v0l-.13-.08v-.06l-.14-.07v-.06l-.13-.08v0l-.13-.08v-.06l-.14-.07v-.06l-.13-.07v-.06l-.13-.08v0l-.13-.08V143l-.14-.07v-.06l-.13-.08v-.05l-.13-.08v-.06l-.14-.07v-.06l-.13-.08v-.05l-.13-.08v-.05l-.14-.08v-.06l-.13-.07v-.06l-.13-.08v-.05l-.13-.08v-.06l-.14-.07v-.06l-.13-.08v-.05l-.13-.08v-.06l-.14-.07v-.06l-.13-.07V141l-.13-.08v0l-.13-.08v-.06l-.14-.07v-.06l-.13-.08v0l-.13-.08v-.06l-.14-.07v-.06l-.13-.08v-.05l-.13-.08v0l-.14-.08v-.06l-.13-.07v-.06l-.13-.08v-.05l-.13-.08v-.06l-.14-.07v-.06l-.13-.08v-.05l-.13-.08V139l-.14-.08v-.06l-.13-.08v-.05l-.13-.08v-.05l-.13-.08v-.06l-.14-.07v-.06l-.13-.08v-.05l-.13-.08v-.06l-.14-.07v-.06l-.13-.07v-.06l-.13-.08v-.05l-.13-.08v-.06l-.14-.07v-.06l-.13-.08v0l-.13-.08v-.06l-.14-.07V137l-.13-.08v0l-.13-.08v0l-.14-.08v-.06l-.13-.07v-.06l-.13-.08v0l-.13-.08v-.06l-.14-.07v-.06l-.13-.08v-.05l-.13-.08v-.06l-.14-.07v-.06l-.13-.07v-.06l-.13-.08v-.05l-.13-.08v-.06l-.14-.07v-.06l-.13-.08V135l-.13-.08v-.06l-.14-.07v-.06l-.13-.08v0l-.13-.08v-.05l-.14-.08v-.06l-.13-.07v-.06l-.13-.08v0l-.13-.08v-.06l-.14-.07v-.06l-.13-.08v0l-.13-.08v-.06l-.14-.07v-.06l-.13-.08v-.05l-.13-.08v0l-.14-.08V133l-.13-.07v-.06l-.13-.08v-.05l-.13-.08v-.06l-.14-.07v-.06l-.13-.08v-.05l-.13-.08v-.06l-.14-.07v-.06l-.13-.07V132l-.13-.08v-.05l-.13-.08v-.06l-.14-.07v-.06l-.13-.08v-.05l-.13-.08v-.06l-.14-.07v-.06l-.13-.08v0l-.13-.08v-.05l-.14-.08v-.06l-.13-.07v-.06l-.13-.08v0l-.13-.08v-.06l-.14-.07v-.06l-.13-.08v0l-.13-.08V130l-.14-.07v-.06l-.13-.07v-.06l-.13-.08v-.05l-.13-.08v-.06l-.14-.07v-.06l-.13-.08v-.05l-.13-.08V129l-.14-.07v-.06l-.13-.08v-.05l-.13-.08v-.05l-.14-.08v-.06l-.13-.07v-.06l-.13-.08v-.05l-.13-.08v-.06l-.14-.07V128l-.13-.08v0l-.13-.08v0l-.14-.08v-.06l-.13-.08v0l-.13-.08v0l-.14-.08v-.06l-.13-.07V127l-.13-.08v0l-.13-.08v-.06l-.14-.07v-.06l-.13-.07v-.06l-.13-.08v0l-.13-.08v-.06l-.14-.07v-.06l-.13-.08v0l-.13-.08v-.06l-.14-.07v-.06l-.13-.08v-.05l-.13-.08v0l-.14-.08v-.06l-.13-.07v-.06l-.13-.08v0l-.13-.08v-.06l-.14-.07v-.06l-.13-.08v0l-.13-.08v-.06l-.14-.07v-.06l-.13-.07v-.06l-.13-.08v0l-.13-.08V124l-.14-.07v-.06l-.13-.08v-.05l-.13-.08v-.06l-.14-.07v-.06l-.13-.08v0l-.13-.08v0l-.14-.08V123l-.13-.07v-.06l-.13-.08v0l-.13-.08v-.06l-.14-.07v-.06l-.13-.08v-.05l-.13-.08v-.06l-.14-.07v-.06l-.13-.08v0l-.13-.08v-.05l-.14-.08v-.06l-.13-.07v-.06l-.13-.08v0l-.13-.08v-.06l-.14-.07v-.06l-.13-.08v0l-.13-.08v-.06l-.14-.07v-.06l-.13-.07v-.06l-.13-.08v0l-.13-.08v-.06l-.14-.07v-.06l-.13-.08v0l-.13-.08V120l-.14-.08v-.06l-.13-.08v0l-.13-.08v0l-.14-.08v-.06l-.13-.07v-.06l-.13-.08v0l-.13-.08v-.06l-.14-.07v-.06l-.13-.08v0l-.13-.08v0l-.14-.08v-.06l-.13-.07v-.06l-.13-.08v0l-.13-.08v-.06l-.14-.07V118l-.13-.08v0l-.13-.08v-.06l-.14-.07v-.06l-.13-.07v-.06l-.13-.08v0l-.14-.08v-.06l-.13-.07v-.06l-.13-.08v0l-.13-.08v-.06l-.14-.07v-.06l-.13-.08v0l-.13-.08v0l-.14-.08v-.06l-.13-.07v-.06l-.13-.08v0l-.14-.08v-.06l-.13-.07v-.06l-.13-.08v-.05l-.13-.08v-.06l-.14-.07v-.06l-.13-.07v-.06l-.13-.08v-.05l-.13-.08v-.06l-.14-.07v-.06l-.13-.08v0l-.13-.08v-.06l-.14-.07v-.06l-.13-.08v0l-.13-.08v0l-.14-.08V114l-.13-.07v-.06l-.13-.08v-.05l-.14-.08v-.06l-.13-.07v-.06l-.13-.08v0l-.13-.08v-.06l-.14-.07v-.06l-.13-.07v-.06l-.13-.08v0l-.13-.08v-.06l-.14-.07v-.06l-.13-.08v0l-.13-.08v-.06l-.14-.07v-.06l-.13-.08v0l-.13-.08v-.05l-.14-.08v-.06l-.13-.07v-.06l-.13-.08v0l-.13-.08v-.06l-.14-.07v-.06l-.13-.08v0l-.13-.08v0l-.14-.08v-.06l-.13-.08v0l-.13-.08v0l-.14-.08v-.06l-.13-.07v-.06l-.13-.08v0l-.13-.08V110l-.14-.07v-.06l-.13-.07v-.06l-.13-.08v0l-.14-.08v-.06l-.13-.07v-.06l-.13-.08v0l-.13-.08v-.06l-.14-.07V109l-.13-.08v-.05l-.13-.08v0l-.14-.08v-.06l-.13-.07v-.06l-.13-.08v0l-.14-.08v-.06l-.13-.07V108l-.13-.08v0l-.13-.08v-.06l-.14-.07v-.06l-.13-.08v-.05l-.13-.08v0l-.14-.08v-.06l-.13-.07v-.06l-.13-.08V107l-.13-.08v-.06l-.14-.07v-.06l-.13-.08v0l-.13-.08v-.06l-.14-.07v-.06l-.13-.07v-.06l-.13-.08v0l-.14-.08v-.06l-.13-.07v-.06l-.13-.08v-.05l-.13-.08v-.06l-.14-.07v-.06l-.13-.08v0l-.13-.08v-.05l-.14-.08V105l-.13-.07v-.06l-.13-.08v0l-.14-.08v-.06l-.13-.07v-.06l-.13-.08v0l-.13-.08v-.06l-.14-.07V104l-.13-.07v-.06l-.13-.08v0l-.13-.08v-.06l-.14-.07v-.06l-.13-.08v0l-.13-.08v-.06l-.14-.07v-.06l-.13-.08v0l-.13-.08v0l-.14-.08v-.06l-.13-.07v-.06l-.13-.08v0l-.13-.08v-.06l-.14-.07v-.06l-.13-.08v0l-.13-.08v-.06l-.14-.07v-.06l-.13-.08v0l-.13-.08v0l-.13-.08v-.06l-.14-.07v-.06l-.13-.08v0l-.13-.08V101l-.14-.07v-.06l-.13-.08v-.05l-.13-.08v0l-.14-.08v-.06l-.13-.07v-.06l-.13-.08v0l-.13-.08V100l-.14-.07v-.06l-.13-.08v0l-.13-.08v0l-.14-.08v-.06l-.13-.08v-.05l-.13-.08v0l-.14-.08v-.06l-.13-.07V99l-.13-.08v-.05l-.13-.08v-.06l-.14-.07v-.06l-.13-.07v-.06l-.13-.08v-.05l-.14-.08v-.06l-.13-.07v-.06L201.2,98v0l-.13-.08v-.06l-.14-.07v-.06l-.13-.08v0l-.13-.08v0l-.14-.08v-.06l-.13-.07v-.06l-.13-.08V97l-.14-.08v-.06l-.13-.07v-.06l-.13-.08v0l-.13-.08v-.06l-.14-.07v-.06l-.13-.08v0l-.13-.08v0L199.2,96v-.06l-.13-.07v-.06l-.13-.08v0l-.13-.08v-.06l-.14-.07v-.06l-.13-.08v0l-.13-.08v-.06l-.14-.07V95l-.13-.07v-.06l-.13-.08v0l-.14-.08v-.06l-.13-.07v-.06l-.13-.08v0l-.13-.08v-.06l-.14-.07v-.06l-.13-.08v0l-.13-.08v0l-.14-.08v-.06l-.13-.07v-.06l-.13-.08v0l-.14-.08v-.06l-.13-.07v-.06l-.13-.08v0l-.13-.08v-.06l-.14-.07v-.06l-.13-.07V92.6l-.13-.08v0l-.14-.08v-.06l-.13-.07V92.2l-.13-.08v-.05l-.13-.08v-.06l-.14-.07V91.8l-.13-.08v0l-.13-.08v0l-.14-.08V91.4l-.13-.07v-.06l-.13-.08v0l-.13-.08V91l-.14-.07v-.06l-.13-.08v-.05l-.13-.08V90.6l-.14-.07v-.06l-.13-.07v-.06l-.13-.08v-.05l-.13-.08v-.06l-.14-.07v-.06l-.13-.08v0l-.13-.08v-.06l-.14-.07v-.06l-.13-.08v0l-.13-.08v0l-.14-.08v-.06l-.13-.07V89l-.13-.08v-.05L192,88.8v-.06l-.14-.07v-.06l-.13-.08v0l-.13-.08v-.05l-.14-.08v-.06l-.13-.08v0l-.13-.08v0l-.14-.08v-.06l-.13-.07v-.06l-.13-.08v0l-.13-.08v-.06l-.14-.07v-.06l-.13-.07v-.06l-.13-.08v0l-.14-.08v-.06l-.13-.07v-.06l-.13-.08v0l-.13-.08v-.06l-.14-.07v-.06l-.13-.08v0l-.13-.08v0l-.14-.08V86l-.13-.07v-.06l-.13-.08v0l-.14-.08v-.06l-.13-.07v-.06l-.13-.08v0l-.13-.08v-.06l-.14-.07V85l-.13-.08v0l-.13-.08v0l-.14-.08v-.06l-.13-.07v-.06l-.13-.08v0l-.13-.08v-.06l-.14-.07v-.06l-.13-.08V84l-.13-.08v-.06l-.14-.07v-.06l-.13-.07v-.06l-.13-.08v0l-.14-.08v-.06l-.13-.07v-.06l-.13-.08v0l-.13-.08v-.06l-.14-.07v-.06l-.13-.08v-.05l-.13-.08v0l-.14-.08v-.06l-.13-.07v-.06l-.13-.08V82.1l-.14-.08V82l-.13-.07v-.06l-.13-.08v0l-.13-.08v-.06l-.14-.07v-.06l-.13-.07V81.3l-.13-.08v0l-.13-.08V81l-.14-.07V80.9l-.13-.08v0l-.13-.08v0l-.14-.08V80.5l-.13-.08v0l-.13-.08v-.05l-.14-.08V80.1l-.13-.07V80l-.13-.08v0l-.14-.08V79.7l-.13-.07v-.06l-.13-.08v0l-.13-.08V79.3l-.14-.07v-.06l-.13-.07V79l-.13-.08v0l-.13-.08v-.06l-.14-.07v-.06l-.13-.08v0l-.13-.08v-.06l-.14-.07v-.06l-.13-.08v0l-.13-.08v0l-.14-.08v-.06l-.13-.07v-.06l-.13-.08v0l-.13-.08v-.06l-.14-.07v-.06l-.13-.08v0l-.13-.08v0l-.14-.08v-.06l-.13-.08v0l-.13-.08v0l-.14-.08v-.06l-.13-.07v-.06l-.13-.08v0l-.13-.08v-.06l-.14-.07V76l-.13-.07v-.06l-.13-.08v0l-.14-.08v-.06l-.13-.07v-.06l-.13-.08v-.05l-.13-.08v-.06l-.14-.07v-.06L178.2,75v0l-.13-.08v0l-.14-.08v-.06l-.13-.07v-.06l-.13-.08v0l-.14-.08v-.06l-.13-.07v-.06l-.13-.08V74l-.13-.08v-.06l-.14-.07v-.06l-.13-.08v0l-.13-.08v-.05l-.14-.08v-.06l-.13-.07v-.06l-.13-.08v0l-.13-.08v-.06l-.14-.07v-.06l-.13-.08v0l-.13-.08v-.06l-.14-.07v-.06l-.13-.07v-.06l-.13-.08v-.05l-.14-.08V72L144.76,54.38,115,90.56v0h0l-.12-.14h0l-.12-.15h0l-.12-.14h0l-.11-.14h0l-.12-.15h0l-.12-.14h0l-.11-.14h0l-.12-.14h0l-.12-.15h0l-.12-.14h0l-.11-.14h0l-.12-.15h0l-.12-.14h0l-.11-.14h0l-.12-.14h0l-.12-.14h0l-.11-.14h0l-.11-.14h0l-.12-.15h0l-.12-.14h0l-.11-.14h0l-.12-.15h0l-.12-.14h0l-.11-.14h0l-.12-.14h0l-.12-.15h0l-.12-.14h0l-.11-.14h0l-.12-.15h0l-.12-.14h0l-.11-.14h0l-.12-.14h0l-.12-.14h0l-.11-.14h0l-.11-.14h0l-.12-.15h0l-.12-.14h0l-.11-.14h0l-.12-.15h0l-.12-.14h0l-.11-.14h0l-.12-.14h0l-.12-.14h0l-.11-.14h0l-.11-.14h0l-.12-.15h0l-.12-.14h0l-.11-.14h0l-.12-.15v0l-.12-.15h0l-.12-.14h0l-.11-.14h0l-.12-.15h0l-.12-.14h0l-.11-.14h0l-.12-.14h0l-.12-.14h0l-.11-.14h0l-.12-.14h0l-.12-.15h0l-.12-.14h0l-.11-.14h0l-.12-.15h0l-.12-.14h0l-.11-.14h0l-.12-.14h0l-.12-.15h0l-.12-.14h0l-.11-.14h0l-.12-.15h0l-.12-.14h0L105.4,81h0l-.12-.15h0l-.12-.14h0l-.11-.14h0l-.11-.14h0l-.12-.15h0l-.12-.14h0l-.11-.14h0l-.12-.15h0l-.12-.14h0l-.11-.14h0l-.12-.14h0l-.12-.14h0l-.11-.14h0l-.11-.14h0L103.4,79h0l-.12-.14h0l-.11-.14h0l-.12-.15h0l-.12-.14h0l-.12-.14h0l-.11-.14h0l-.12-.15h0l-.12-.14h0l-.11-.14h0l-.12-.15h0l-.12-.14h0l-.11-.14h0l-.12-.14h0l-.12-.14h0l-.12-.14h0l-.11-.14h0l-.12-.15h0l-.12-.14h0l-.11-.14h0l-.12-.15h0l-.12-.14h0l-.11-.14h0l-.12-.14h0l-.12-.15h0l-.12-.14h0l-.11-.14h0l-.12-.15h0l-.12-.14h0l-.11-.14h0L99.41,75h0l-.12-.15h0l-.12-.14h0L99,74.59h0l-.12-.15h0l-.12-.14h0l-.11-.14h0l-.12-.14h0l-.12-.14h0l-.11-.14h0l-.11-.14h0L98,73.52h0l-.12-.14h0l-.11-.14h0l-.12-.15h0L97.42,73h0l-.11-.14h0l-.11-.14h0L97,72.59h0l-.12-.14h0l-.11-.14h0l-.12-.15h0l-.12-.14h0l-.11-.14h0l-.12-.14h0l-.12-.14h0L96,71.53h0l-.11-.14h0l-.12-.15h0l-.12-.14h0L95.43,71h0l-.12-.15h0l-.12-.14h0L95,70.6h0l-.12-.14h0l-.12-.15h0l-.12-.14h0l-.11-.14h0l-.12-.15h0l-.12-.14h0l-.11-.14h0L94,69.53h0l-.12-.14h0l-.12-.14h0l-.11-.14h0L93.43,69h0l-.12-.14h0l-.11-.14h0L93,68.61h0l-.12-.14h0l-.11-.14h0l-.12-.14h0l-.12-.14h0l-.12-.14h0l-.11-.14h0l-.12-.15h0L92,67.54h0l-.11-.14h0l-.11-.14h0l-.12-.15h0L91.44,67h0l-.11-.14h0l-.12-.15h0L91,66.61h0l-.11-.14h0l-.12-.14h0l-.12-.14h0l-.11-.14h0L90.38,66h0l-.12-.15h0l-.12-.14h0L90,65.55h0l-.12-.15h0l-.12-.14h0l-.11-.14h0L89.44,65h0l-.12-.14h0l-.11-.14h0l-.11-.14h0l-.12-.15h0l-.12-.14h0l-.11-.14h0l-.12-.15h0L88.38,64h0l-.12-.14h0l-.11-.14h0L88,63.55h0l-.12-.14h0l-.11-.14h0l-.12-.15h0L87.45,63h0l-.11-.14h0l-.12-.14h0l-.12-.14h0l-.12-.14h0l-.11-.14h0l-.12-.15h0l-.12-.14h0L86.39,62h0l-.12-.15v0l-.12-.15h0L86,61.56h0l-.11-.14h0l-.12-.15h0l-.12-.14h0L85.46,61h0l-.12-.14h0l-.12-.14h0l-.11-.14h0l-.12-.14h0l-.12-.15h0l-.12-.14h0l-.11-.14h0L84.39,60h0l-.12-.14h0l-.11-.14h0L84,59.57h0l-.12-.14h0l-.11-.14h0l-.12-.14h0L83.46,59h0l-.12-.14h0l-.11-.14h0l-.12-.15h0l-.12-.14h0l-.11-.14h0l-.11-.14h0l-.12-.15h0L82.4,58h0l-.11-.14h0l-.12-.15h0L82,57.57h0l-.11-.14h0l-.12-.14h0l-.12-.14h0L81.47,57h0l-.11-.14h0l-.12-.15h0l-.12-.14h0l-.11-.14h0l-.12-.15h0l-.12-.14h0l-.12-.14h0L80.4,56h0l-.12-.15h0l-.12-.14h0L80,55.58h0l-.12-.15h0l-.12-.14h0l-.11-.14h0l-.12-.14h0l-.12-.14h0l-.12-.14h0l-.11-.14h0l-.12-.15h0l-.12-.14L48.3,72v73.3l.13.08v.05l.14.08v.06l.13.08v0l.13.08v.05l.14.08V146l.13.07v.06l.13.08v0l.13.08v.06l.14.07v.06l.13.07v.06l.13.08v0l.14.08v.06L50,147V147l.13.08v0l.14.08v.06l.13.07v.06l.13.08v.05l.13.08v.05l.14.08v.06l.13.07V148l.13.08v.05l.14.08v.06l.13.07v.06l.13.08v.05l.13.08v.06l.14.07v.06l.13.08v0L52,149V149l.14.08v.06l.13.07v.06l.13.08v0l.14.08v.06l.13.07v.06l.13.08v0l.13.08V150l.14.07v.06l.13.07v.06l.13.08v0l.14.08v.06l.13.07v.06l.13.08v.05l.14.08v.06L54,151V151l.13.08v.05l.13.08v.05l.14.08v.06l.13.07v.06l.13.08v.05l.14.08v.06l.13.07V152l.13.08v.05l.13.08v.06l.14.07v.06l.13.07v.06l.13.08v.05l.14.08v.06l.13.07v.06L56,153v0l.13.08v.06l.14.07v.06l.13.08v0l.13.08v0l.14.08v.06l.13.07v.06l.13.08v.05l.13.08v.06l.14.07v.06l.13.08v.05l.13.08v.06l.14.07v.06l.13.08v.05l.13.08v.05L58,155V155l.13.07v.06l.13.08v.05l.13.08v.06l.14.07v.06l.13.08v0l.13.08v.06l.14.07v.06l.13.07v.06l.13.08v0l.14.08v.06l.13.07v.06l.13.08v0l.13.08v0l.14.08v.06L60,157V157l.13.08v0l.14.08v.06l.13.07v.06l.13.08v.05l.13.08v.06l.14.07v.06l.13.08v.05l.13.08v.05l.14.08v.06l.13.07v.06l.13.08v.05l.14.08v.06l.13.07v.06l.13.08v.05l.13.08V159l.14.08v.06l.13.07v.06l.13.08v0l.13.08v.06l.14.07v.06l.13.08v0l.13.08v.06l.14.07v.06l.13.08v.05l.13.08v0l.14.08v.06l.13.07v.06l.13.08v.05l.13.08v.06l.14.07V161l.13.08v.05l.13.08v.06l.14.07v.06l.13.07v.06l.13.08v.05l.14.08v.06l.13.07v.06l.13.08v.05l.13.08v.06l.14.07v.06l.13.08v0l.13.08v.05l.14.08v.06l.13.07v.06l.13.08v0l.13.08v.06l.14.07v.06l.13.08v0l.13.08v.06l.14.07v.06l.13.07v.06l.13.08v0l.14.08v.06l.13.07v.06l.13.08v.05l.13.08v.06l.14.07v.06l.13.08v.05l.13.08v.05l.14.08V165l.13.07v.06l.13.08v.05l.13.08v.06l.14.07v.06l.13.08v0l.13.08v.05l.14.08v.06L69,166v0l.13.08v0l.14.08v.06l.13.07v.06l.13.08v0l.13.08v.06l.14.07v.06l.13.07V167l.13.08v0l.14.08v.06l.13.07v.06l.13.08v.05l.14.08v.06l.13.07v.06l.13.08v.05L71,168V168l.14.08v.06l.13.07v.06l.13.08v.05l.13.08v.06l.14.07v.06l.13.08v.05l.13.08V169l.14.07v.06l.13.07v.06l.13.08v.05l.14.08v.06l.13.07v.06l.13.08v0l.13.08v.06L73,170V170l.13.08v0l.13.08v0l.14.08v.06l.13.07v.06l.13.08v.05l.14.08v.06l.13.07V171l.13.08v.05l.13.08v.06l.14.07v.06l.13.08v.05l.13.08v.05l.14.08v.06l.13.07v.06L75,172V172l.13.08v.06l.14.07v.06l.13.08v0l.13.08v.06l.14.07v.06l.13.07v.06l.13.08v0l.14.08v.06l.13.07v.06l.13.08v0l.13.08v.06l.14.07v.06l.13.08v.05l.13.08v0L77,174V174l.13.07v.06l.13.08v.05l.13.08v.06l.14.07v.06l.13.08v.05l.13.08v.06l.14.07V175l.13.07v.06l.13.08v.05l.14.08v.06l.13.07v.06l.13.08v.05l.13.08v.06l.14.07v.06L79,176v0l.13.08v0l.14.08v.06l.13.07v.06l.13.08v0l.13.08v.06l.14.07v.06l.13.08v.05l.13.08v0l.14.08v.06l.13.08v.05l.13.08v.05l.13.08v.06l.14.07v.06l.13.08v.05L81,178V178l.14.07v.06l.13.07v.06l.13.08v.05l.14.08v.06l.13.07v.06l.13.08v.05l.13.08v.06l.14.07v.06l.13.08v0l.13.08v.05l.14.08v.06l.13.07v.06l.13.08v0l.13.08v.06l.14.07V180l.13.08v0l.13.08v.06l.14.07v.06l.13.08v.05l.13.08v0l.14.08v.06l.13.07v.06l.13.08v.05l.13.08v.06l.14.07v.06l.13.08v.05l.13.08v.05l.14.08v.06l.13.07v.06l.13.08V182l.14.08v.06l.13.07v.06l.13.08v0l.13.08v.06l.14.07v.06l.13.08v0l.13.08v0l.13.08v.06l.14.07v.06l.13.08v0l.13.08v.06l.14.07v.06l.13.08v.05l.13.08v.06l.14.07V184l.13.07v.06l.13.08v.05l.13.08v.06l.14.07v.06l.13.08v.05l.13.08v.06l.14.07v.06l.13.08v.05l.13.08v.05l.13.08v.06l.14.07v.06l.13.08v.05l.13.08v.06l.14.07v.06l.13.08v0l.13.08v.06l.14.07v.06l.13.07v.06l.13.08v0l.13.08v.06l.14.07v.06l.13.08v0L90,187v.06l.14.07v.06l.13.08v.05l.13.08v.05l.14.08v.06l.13.07v.06l.13.08v.05l.13.08V188l.14.07v.06l.13.08v.05l.13.08v.05l.14.08v.06l.13.08v0l.13.08v.05l.13.08v.06L92,189V189l.13.08v0l.13.08v.06l.14.07v.06l.13.07v.06l.13.08v0l.14.08v.06l.13.07V190l.13.08v0l.13.08v.06l.14.07v.06l.13.08v.05l.13.08v0l.13.08v.06l.14.07v.06L94,191V191l.13.08v.06l.14.07v.06l.13.08v.05l.13.08v.06l.14.07v.06l.13.07v.06l.13.08V192l.13.08v.06l.14.07v.06l.13.08v.05l.13.08v.06l.14.07v.06l.13.08v0l.13.08v0L96,193V193l.13.07v.06l.13.08v0l.13.08v.06l.14.07v.06l.13.08v.05l.13.08v.06l.14.07V194l.13.08v.05l.13.08v.05l.13.08v.06l.14.07v.06l.13.08v.05l.13.08v.06l.14.07v.06L98,195V195l.13.08v.06l.14.07v.06l.13.07v.06l.13.08v.05l.13.08v.06l.14.07v.06l.13.08v0l.13.08v.06l.14.07v.06l.13.08v0l.13.08v0l.13.08v.06l.14.07v.06l.13.08v0l.13.08V197l.14.07v.06l.13.08v.05l.13.08v.06l.14.07v.06l.13.07v.06l.13.08v.05l.13.08V198l.14.07v.06l.13.08v.05l.13.08v.06l.14.07v.06l.13.08v.05l.13.08v.05l.14.08v.06l.13.07V199l.13.08v0l.13.08v.06l.14.07v.06l.13.08v0l.13.08v0l.14.08v.06l.13.08v.05l.13.08v0l.13.08v.06l.14.07v.06l.13.08v.05l.13.08v.06l.14.07v.06l.13.07v.06l.13.08V201l.14.08v.06l.13.07v.06l.13.08v.05l.13.08v.06l.14.07v.06l.13.08v.05l.13.08v.05l.13.08v.06l.14.07v.06l.13.08v.05l.13.08v.06l.14.07v.06l.13.08v0l.13.08v.06l.14.07V203l.13.07v.06l.13.08v0l.13.08v.06l.14.07v.06l.13.08v0l.13.08v.06l.14.07v.06l.13.08v.05l.13.08v.05l.14.08v.06l.13.07v.06l.13.08v.05l.13.08v.06l.14.07v.06l.13.08V205l.13.08v.06l.14.07v.06l.13.08v0l.13.08v.05l.13.08v.06l.14.07v.06l.13.08v0l.13.08v.06l.14.07v.06l.13.08v0l.13.08v.06l.14.07v.06l.13.07v.06l.13.08v0l.13.08V207l.14.07v.06l.13.08v.05l.13.08v0l.14.08v.06l.13.08v.05l.13.08v.05l.13.08v.06l.14.07v.06l.13.08v.05l.13.08v.06l.14.07v.06l.13.08v.05l.13.08v.05l.14.08v.06l.13.07V209l.13.08v.05l.13.08v.06l.14.07v.06l.13.08v0l.13.08v.06l.14.07v.06l.13.07v.06l.13.08v0l.14.08v.06l.13.07v.06l.13.08v.05l.13.08v.06l.14.07v.06l.13.08v.05l.13.08V211l.13.08v.06l.14.07v.06l.13.08v.05l.13.08v.06l.14.07v.06l.13.08v.05l.13.08v.06l.14.07V212l.13.07v.06l.13.08v.05l.13.08v.06l.14.07v.06l.13.08v0l.13.08v.06l.14.07V213l.13.08v0l.13.08v0l.13.08v.06l.14.07v.06l.13.08v0l.13.08v.06l.14.07v.06l.13.08V214l.13.08v.06l.14.07v.06l.13.08v.05l.13.08v.05l.13.08v.06l.14.07v.06l.13.08V215l.13.08v.06l.14.07v.06l.13.08v.05l.13.08v.05l.14.08v.06l.13.07v.06l.13.08v0l.13.08V216l.14.07v.06l.13.08v0l.13.08v.06l.14.07v.06l.13.08v.05l.13.08v0l.13.08V217l.14.07v.06l.13.08v.05l.13.08v.06l.14.07v.06l.13.08v.05l.13.08v.06l.14.07v.06l.13.07V218l.13.08v.05l.13.08v.06l.14.07v.06l.13.08v.05l.13.08v.05l.14.08v.06l.13.08v0l.13.08v.05l.13.08v.06l.14.07v.06l.13.08v0l.13.08v.06l.14.07v.06l.13.08v0l.13.08v0l.13.08v.06l.14.07v.06l.13.08v0l.13.08v.06l.14.07v.06l.13.08v.05l.13.08V221l.14.07v.06l.13.07v.06l.13.08v.05l.13.08v.06l.14.07v.06l.13.08v.05l.13.08v.06l.14.07V222l.13.08v0l.13.08v.05l.13.08v.06l.14.07v.06l.13.08v0l.13.08v.06l.14.07v.06l.13.08v0l.13.08v.06l.14.07v.06l.13.07v.06l.13.08v0l.13.08v.06l.14.07v.06l.13.08V224l.13.08v.06l.14.07v.06l.13.08v.05l.13.08v.05l.13.08v.06l.14.07v.06l.13.08v.05l.13.08v.06l.14.07v.06l.13.08v.05l.13.08v.06l.13.07v.06l.14.07v.06l.13.08v.05l.13.08V226l.14.07v.06l.13.08v0l.13.08v.06l.14.07v.06l.13.08v0l.13.08v0l.13.08v.06l.14.07v.06l.13.08v.05l.13.08v.06l.14.07v.06l.13.08v.05l.13.08v.06l.13.07v.06l.14.08V228l.13.08v.05l.13.08v.06l.14.07v.06l.13.08v.05l.13.08v.06l.14.07v.06l.13.08v0l.13.08v.06l.13.07v.06l.14.07v.06l.13.08v0l.13.08v.06l.14.07v.06l.13.08v0l.13.08v0l.14.08v.06l.13.08v.05l.13.08v0l.13.08v.06l.14.07v.06l.13.08v.05l.13.08v.06l.14.07v.06l.13.08v.05l.13.08v.05l.13.08v.06l.14.07v.06l.13.08v.05l.13.08v.06l.14.07V232l.13.08v.05l.13.08v.06l.14.07v.06l.13.07v.06l.13.08v0l.13.08v.06l.14.07v.06l.13.08v0l.13.08v.06l.13.07v.06l.14.08v.05l.13.08v0l.13.08v.06l.14.07v.06l.13.08V234l.13.08v.06l.14.07v.06l.13.08v.05l.13.08v.06l.13.07v.06l.14.07v.06l.13.08v.05l.13.08V235l.14.07v.06l.13.08v.05l.13.08v.06l.14.07v.06l.13.08v0l.13.08v.05l.13.08V236l.14.07v.06l.13.08v0l.13.08v.06l.14.07v.06l.13.08v0l.13.08v.06l.13.07v.06l.14.07V237l.13.08v0l.13.08v.06l.14.07v.06l.13.08v.05l.13.08v.06l.14.07v.06l.13.08V238l.13.08v.06l.13.07v.06l.14.07v.06l.13.08v.05l.13.08v.06l.14.07v.06l.13.08v0l.13.08V239l.13.07v.06l.14.08v0l.13.08v0l.13.08v.06l.14.07v.06l.13.08v0l.13.08V240l.14.07v.06l.13.08v.05l.13.08v.06l.13.07v.06l.14.07v.06l.13.08v.05l.13.08v.06l.14.07V241l.13.08v.05l.13.08v.05l.14.08v.06l.13.08v.05l.13.08v.05l.13.08v.06l.14.07V242l.13.08v.05l.13.08v.06l.13.07v.06l.14.08v0l.13.08v.05l.13.08v.06l.14.07v.06l.13.08v0l.13.08v.06l.14.07v.06l.13.08v0l.13.08v.06l.13.07v.06l.14.07v.06l.13.08v.05l.13.08v.06l.14.07v.06l.13.08v.05l.13.08v.06l.13.07v.06l.14.08v.05l.13.08v.05l.13.08V245l.14.07v.06l.13.08v.05l.13.08v.06l.14.07v.06l.13.08v0l.13.08v.06l.13.07v.06l.14.07v.06l.13.08v0l.13.08v.06l.14.07v.06l.13.08v0l.13.08v.06l.14.07v.06l.13.08V247l.13.08v0l.13.08v.06l.14.07v.06l.13.08v.05l.13.08v.06l.14.07v.06l.13.08v.05l.13.08v.06l.13.07v.06l.14.08v.05l.13.08v.05l.13.08v.06l.14.07v.06l.13.08v.05l.13.08V249l.14.07v.06l.13.08v0l.13.08v.06l.13.07v.06l.14.07v.06l.13.08v0l.13.08v.06l.14.07v.06l.13.08v.05l.13.08v.06l.13.07v.06l.14.08v.05l.13.08v.05l.13.08v.06l.14.07V251l.13.08v.05l.13.08v.06l.14.07v.06l.13.08v.05l.13.08v.06l.13.07v.06l.14.07v.06l.13.08v.05l.13.08v.06l.14.07v.06l.13.08v0l.13.08v.05l.14.08v.06l.13.08v0l.13.08v0l.13.08v.06l.14.07v.06l.13.08v0l.13.08v.06l.13.07v.06l.14.08v.05l.13.08v0l.13.08v.06l.14.07v.06l.13.08v.05l.13.08v.06l.14.07v.06l.13.08v.05l.13.08v.06l.13.07V255l.14.07v.06l.13.08v.05l.13.08v.06l.14.07v.06l.13.08v0l.13.08v.06l.13.07v.06l.14.08V256l.13.08v.05l.13.08v.06l.14.07v.06l.13.08v.05l.13.08v.06l.14.07v.06l.13.08V257l.13.08v.06l.13.07v.06l.14.07v.06l.13.08v.05l.13.08v.06l.14.07v.06l.13.08v0l.13.08V258l.14.07v.06l.13.08v.05l.13.08v.05l.13.08v.06l.14.07v.06l.13.08v.05l.13.08V259l.14.07v.06l.13.08v.05l.13.08v.06l.13.07v.06l.14.08v.05l.13.08v.05l.13.08v.06l.14.07V260l.13.08v.05l.13.08v.06l.14.07v.06l.13.08v.05l.13.08v.06l.13.07v.06l.14.07V261l.13.08v0l.13.08v.06l.14.07v.06l.13.08v.05l.13.08v.05l.13.08v.06l.14.08v.05l.13.08v0l.13.08v.06l.14.07v.06l.13.08v.05l.13.08v.06l.14.07v.06l.13.07v.06l.13.08V263l.13.08v.06l.14.07v.06l.13.08v.05l.13.08v.06l.14.07v.06l.13.08v.05l.13.08v.05l.14.08V264l.13.07v.06l.13.08v0l.13.08v.06l.14.07v.06l.13.08v.05l.13.08v.06l.14.07V265l.13.08v.05l.13.08v0l.13.08v.06l.14.07v.06l.13.08v.05l.13.08v.06l.14.07v.06l.13.08V266l.13.08v.06l.14.07v.06l.13.07v.06l.13.08v.05l.13.08v.06l.14.07v.06l.13.08v.05l.13.08v.06l.13.07v.06l.14.08v0l.13.08v.05l.13.08v.06l.14.07v.06l.13.08v.05l.13.08V268l.14.07v.06l.13.08v0l.13.08v.06l.14.07v.06l.13.07v.06l.13.08v.05l.13.08v.06l.14.07v.06l.13.08v.05l.13.08v.06l.14.07v.06l.13.08v.05l.13.08v.05l.13.08v.06l.14.07V270l.13.08v.05l.13.08v.06l.14.07v.06l.13.08v0l.13.08v.06l.13.07v.06l.14.07v.06l.13.08v.05l.13.08v.06l.14.07v.06l.13.08v0l.13.08v.06l.14.07v.06l.13.08v.05l.13.08V272l.13.08v.06l.14.07v.06l.13.08v.05l.13.08v.06l.14.07v.06l.13.08v.05l.13.08v.05l.13.08v.06l.14.08v.05l.13.08v.05l.13.08v.06l.14.07v.06l.13.08v.05l.13.08v.06l.14.07V274l.13.07v.06l.13.08v.05l.13.08v.06l.14.07v.06l.13.08v0l.13.08v.06l.14.07v.06l.13.08v.05l.13.08v.05l.14.08v.06l.13.07v.06l.13.08v.05l.13.08v.06l.14.07v.06l.13.08V276l.13.08v.06l.14.07v.06l.13.08v.05l.13.08v.05l.13.08v.06l.14.07v.06l.13.08v.05l.13.08v.06l.14.07v.06l.13.08v.05l.13.08v.06l.14.07v.06l.13.07v.06l.13.08v0l.13.08V278l.14.07v.06l.13.08v.05l.13.08v.06l30.86,17.81V239.83h0l.11.14h0l.11.13h0l.11.13h0l.11.14h0l.11.13h0l.11.13h0l.11.14h0l.11.13h0l.11.13h0l.1.13h0l.11.14h0l.11.13h0l.11.13h0l.11.14h0l.11.13h0l.11.13h0l.1.14h0l.11.13h0l.11.13h0l.1.13h0l.11.14h0l.11.13h0l.11.13h0l.11.14h0l.11.13h0l.11.13h0l.1.13h0l.11.14h0l.11.13h0l.11.13h0l.1.14h0l.11.13h0l.11.13h0l.1.14h0l.11.13h0l.11.13h0l.1.13h0l.11.14h0l.11.13h0l.11.13h0l.1.13h0l.11.14h0l.11.13h0l.11.13h0l.11.14h0l.11.13h0l.11.13h0l.11.14h0l.11.13h0l.11.13h0l.1.13h0l.11.14h0l.11.13h0l.11.13h0l.11.14h0l.11.13h0l.11.13h0l.1.14h0l.11.13h0l.11.13h0l.1.13h0l.11.14h0l.11.13h0l.11.13h0l.11.14h0l.11.13h0l.11.13h0l.1.13h0l.11.14h0l.11.13h0l.11.13h0l.1.14h0l.11.13h0l.11.13h0l.1.14h0l.11.13h0l.11.13h0l.1.13h0l.11.14h0l.11.13h0l.11.13h0l.1.14h0l.11.13h0l.11.13h0l.1.13h0l.11.14h0l.11.13h0l.11.13h0l.11.14h0l.11.13h0l.11.13h0l.1.14h0l.11.13h0l.11.13h0l.11.13h0l.11.14h0l.11.13h0l.11.13h0l.1.14h0l.11.13h0l.11.13h0l.1.14h0l.11.13h0l.11.13h0l.11.13h0l.11.14h0l.11.13h0l.11.13h0l.1.14h0l.11.13h0l.11.13h0l.11.13h0l.11.14h0l.11.13h0l.11.13h0l.1.14h0l.11.13h0l.11.13h0l.1.14h0l.11.13h0l.11.13h0l.11.13h0l.11.14h0l.11.13h0l.11.13h0l.1.13h0l.11.14h0l.11.13h0l.1.13h0l.11.14h0l.11.13h0l.11.13h0l.11.14h0l.11.13h0l.11.13h0l.1.13h0l.11.14h0l.11.13h0l.11.13h0l.1.14h0l.11.13h0l.11.13h0l.1.14h0l.11.13h0l.11.13h0l.1.13h0l.11.14h0l.11.13h0l.11.13h0l.1.14h0l.11.13h0l.11.13h0l.1.13h0l.11.14h0l.11.13h0l.11.13h0l.1.14h0l.11.13h0l.11.13h0l.1.14h0l.11.13h0l.11.13h0l.1.13h0l.11.14h0l.11.13h0l.11.13h0l.1.14h0l.11.13h0l.11.13h0l.1.13h0l.11.14h0l.11.13h0l.11.13h0l.11.14h0l.11.13h0l.11.13h0l.1.14h0l.11.13h0l.11.13h0l.11.13h0l.11.14h0l.11.13h0l.11.13h0l.1.14h0l.11.13h0l.11.13h0l.1.14h0l.11.13h0l.11.13h0l.11.13h0l.11.14h0l.11.13h0l.11.13h0l.1.13h0l.11.14h0l.11.13h0l.11.13h0l.11.14h0l.11.13h0l.11.13h0l.1.14h0l.11.13h0l.11.13h0l.1.13h0l.11.14h0l.11.13h0l.11.13h0l.11.14h0l.11.13h0l.11.13h0l.1.13h0l.11.14h0l.11.13h0l.11.13h0l.11.14h0l.11.13h0l.11.13h0l.11.14h0l.11.13h0l.11.13h0l.1.13h0l.11.14h0l.11.13h0l.11.13h0l.1.14h0l.11.13h0l.11.13h0l.1.14h0l.11.13h0l.11.13h0l.1.13h0l.11.14h2.69l2.16-2.68v.18l.14-.08v.21l.13-.08v.21l.13-.07v.2l.14-.07v.21l.13-.08v.21l.13-.08V269l.13-.07v.21L249,269v.21l.13-.08v.21l.13-.07v.21l.14-.08v.21l.13-.08v.21l.13-.08v.21l.14-.07V270l.13-.08v.21l.13-.08v.21l.13-.07v.21l.14-.08v.21l.13-.08v.21l.13-.07v.2l.14-.07V271l.13-.08v.21L251,271v.21l.14-.07v.21l.13-.08v.21l.13-.08v.21l.13-.07v.21l.14-.08v.21l.13-.08V272l.13-.08v.21l.14-.07v.21l.13-.08v.21l.13-.08v.21l.13-.07v.21l.14-.08v.21l.13-.08V273l.13-.07v.21L253,273v.21l.13-.08v.21l.13-.08v.21l.14-.07v.21l.13-.08v.21l.13-.08v.21l.13-.07V274l.14-.08v.21l.13-.08v.21l.13-.07v.2l.14-.07v.21l.13-.08v.21l.13-.08v.21l.13-.07V275l.14-.08v.21L255,275v.21l.13-.07v.21l.14-.08v.21l.13-.08v.21l.13-.08v.21l.13-.07v.21l.14-.08V276l.13-.08v.21l.13-.07v.21l.14-.08v.21l.13-.08v.21l.13-.07v.2l.14-.07v.21l.13-.08V277l.13-.08v.21L257,277v.21l.14-.08v.21l.13-.08v.21l.13-.07v.21l.14-.08v.21l.13-.08v.21l.13-.08V278l.13-.07v.21l.14-.08v.21l.13-.08v.21l.13-.07v.21l.14-.08v.21l.13-.08v.21l.13-.08V279l.14-.08v.21L259,279v.21l.13-.08v.21l.13-.07v.21l.14-.08v.21l.13-.08v.21l.13-.07v.21l.14-.08V280l.13-.08v.21l.13-.07v.2l.13-.07v.21l.14-.08v.21l.13-.08v.21l.13-.07v.21l.14-.08v.21l.13-.08v.21L261,281v.22l.14-.08v.21l.13-.08v.21l.13-.08v.21l.13-.07v.21l.14-.08v.21l.13-.08V282l.13-.07v.2l.14-.07v.21l.13-.08v.21l.13-.08v.21l.14-.07v.21l.13-.08v.21l.13-.08v.21l.13-.07v.21L263,283v.21l.13-.08v.21l.13-.08v.21l.14-.07v.21l.13-.08v.21l.13-.08v.21l.13-.07V284l.14-.08v.21l.13-.08v.21l.13-.07v.21l.14-.08v.21l.13-.08v.21l.13-.08v.21l.14-.07v.21l.13-.08v.21l.13-.08v.21l.13-.07v.21l.14-.08v.21l.13-.08v.21l.13-.07v.2l.14-.07v.21l.13-.08V286l.13-.08v.21l.13-.07v.21l.14-.08v.21l.13-.08v.21l.13-.07v.21l.14-.08v.21l.13-.08v.21l.13-.08v.21l.13-.07v.21l.14-.08v.21l.13-.08v.21l.13-.07v.21l.14-.08v.21l.13-.08v.21l.13-.07v.2l.14-.07v.21L268,288v.21l.13-.08v.21l.13-.07v.21l.14-.08v.21l.13-.08v.21l.13-.07v.21l.14-.08v.21l.13-.08v.21l.13-.08v.21l.13-.07v.21l.14-.08v.21l.13-.08v.21l.13-.07v.21l.14-.08V290l.13-.08v.21L270,290v.21l.14-.08v.21l.13-.08v.21l.13-.08v.21l.13-.07v.21l.14-.08v.21l.13-.08V291l.13-.07v.21l.14-.08v.21l.13-.08v.21l.13-.07v.2l.13-.07v.21l.14-.08v.21l.13-.08V292l.13-.07v.21L272,292v.21l.13-.08v.21l.13-.08v.22l.14-.08v.21l.13-.08v.21l.13-.08v.21l.13-.07V293l.14-.08v.21l.13-.08v.21l.13-.07v.2l.14-.07v.21l.13-.08v.21l.13-.08v.21l.14-.07V294l.13-.08v.21L274,294v.21l.13-.07v.21l.14-.08v.21l.13-.08v.21l.13-.08v.21l.13-.07v.21l.14-.08V295l.13-.08v.21l.13-.07v.21l.14-.08v.21l.13-.08v.21l.13-.07v.21l.14-.08v.21l.13-.08V296l.13-.08v.21L276,296v.21l.14-.08v.21l.13-.08v.21l.13-.07v.21l.14-.08v.21l31.84-18.38V205.07Z"/></g></g></g></g></g></g></g></g><g id="g48"><g class="cls-2"><g id="g50"><g id="g56"><path id="path58" class="cls-8" d="M110,137.6h2.7l30.74-37.92v64l31.85-18.39V72L144.76,54.38l-33,40.16L78.81,54.38,48.3,72V145.3l30.86,17.82V99.68Z"/></g></g></g></g></g></g></svg>