<svg xmlns="http://www.w3.org/2000/svg" viewBox="0 0 220 220"><defs><style>.cls-1{fill:#00acd7;}</style></defs><title>go</title><g id="go"><path class="cls-1" d="M31.65,94.57c-.36,0-.45-.18-.27-.45l1.89-2.43a1.29,1.29,0,0,1,1-.45H66.39c.36,0,.45.27.27.54l-1.53,2.34a1.37,1.37,0,0,1-.9.54Z"/><path class="cls-1" d="M18.06,102.85c-.36,0-.45-.18-.27-.45L19.68,100a1.29,1.29,0,0,1,1-.45h41a.41.41,0,0,1,.45.54l-.72,2.16a.79.79,0,0,1-.81.54Z"/><path class="cls-1" d="M39.84,111.13c-.36,0-.45-.27-.27-.54l1.26-2.25a1.19,1.19,0,0,1,.9-.54h18c.36,0,.54.27.54.63l-.18,2.16a.68.68,0,0,1-.63.63Z"/><g id="CXHf1q"><path class="cls-1" d="M133.26,93c-5.67,1.44-9.54,2.52-15.12,4-1.35.36-1.44.45-2.61-.9a12,12,0,0,0-4.23-3.42c-5.67-2.79-11.16-2-16.29,1.35A19.14,19.14,0,0,0,85.83,111,14.11,14.11,0,0,0,98,125.17c6.12.81,11.25-1.35,15.3-5.94.81-1,1.53-2.07,2.43-3.33H98.34c-1.89,0-2.34-1.17-1.71-2.7,1.17-2.79,3.33-7.47,4.59-9.81a2.43,2.43,0,0,1,2.25-1.44h32.76c-.18,2.43-.18,4.86-.54,7.29a38.38,38.38,0,0,1-7.38,17.64c-6.48,8.55-14.94,13.86-25.65,15.3-8.82,1.17-17-.54-24.21-5.94a28.27,28.27,0,0,1-11.43-20c-1.17-9.81,1.71-18.63,7.65-26.37a39.94,39.94,0,0,1,25.2-15.57c8.46-1.53,16.56-.54,23.85,4.41a28.21,28.21,0,0,1,10.44,12.69C134.7,92.23,134.34,92.68,133.26,93Z"/><path class="cls-1" d="M163.05,142.72c-8.19-.18-15.66-2.52-22-7.92a28.23,28.23,0,0,1-9.72-17.37c-1.62-10.17,1.17-19.17,7.29-27.18,6.57-8.64,14.49-13.14,25.2-15,9.18-1.62,17.82-.72,25.65,4.59,7.11,4.86,11.52,11.43,12.69,20.07,1.53,12.15-2,22.05-10.35,30.51a41.24,41.24,0,0,1-21.6,11.52C167.82,142.36,165.39,142.45,163.05,142.72Zm21.42-36.36a25.9,25.9,0,0,0-.27-3,14.83,14.83,0,0,0-18.36-12c-8.37,1.89-13.77,7.2-15.75,15.66a14.82,14.82,0,0,0,8.28,17,16.5,16.5,0,0,0,14.67-.54C180.15,119.86,184,114.1,184.47,106.36Z"/></g></g></svg>