<svg xmlns="http://www.w3.org/2000/svg" viewBox="0 0 220 220"><defs><style>.cls-1{fill:#782a90;stroke-width:7.18px;}.cls-1,.cls-3{stroke:#782a90;stroke-linejoin:round;}.cls-2,.cls-3{fill:#fff;}.cls-2{fill-rule:evenodd;}.cls-3{stroke-width:7.98px;}</style></defs><title>vertx</title><g id="vertx"><path class="cls-1" d="M44.13,20.13H177c11.81,0,21.38,8.16,21.38,18.22V177.57c0,10.07-9.57,18.23-21.38,18.23H44.13c-11.81,0-21.38-8.16-21.38-18.23V38.35C22.75,28.29,32.32,20.13,44.13,20.13Z"/><path class="cls-2" d="M14.78,53.54H43L71,117.9l29.18-63.68h27l-49,107.59H62.64Z"/><path class="cls-2" d="M99.91,53.71H134l21,30.44,21-30.44h33.59L133.5,161.3H100.43l38.32-53.53Zm60.87,89.44,15.74-22.57L205.91,161H172.84Z"/><circle class="cls-3" cx="97.85" cy="161.34" r="20.11"/></g></svg>