<svg xmlns="http://www.w3.org/2000/svg" viewBox="0 0 220 220"><defs><style>.cls-1{fill:#e76f00;}.cls-2{fill:#5382a1;}</style></defs><title>java</title><g id="java"><path class="cls-1" d="M158.37,162.31h-.73v-.41h2v.41h-.73v2.05h-.51Zm3.94.11h0l-.73,1.94h-.33l-.72-1.94h0v1.94H160V161.9h.71l.67,1.74.67-1.74h.71v2.46h-.47Z"/><path class="cls-2" d="M92.68,112s-5.1,3,3.64,4c10.58,1.21,16,1,27.66-1.17a48.73,48.73,0,0,0,7.35,3.59c-26.15,11.2-59.19-.65-38.65-6.39M89.49,97.41s-5.73,4.24,3,5.14c11.31,1.17,20.24,1.27,35.69-1.71a15.8,15.8,0,0,0,5.5,3.35c-31.62,9.25-66.84.73-44.21-6.78"/><path class="cls-1" d="M116.43,72.6c6.44,7.42-1.69,14.1-1.69,14.1s16.36-8.45,8.84-19c-7-9.86-12.4-14.76,16.74-31.66,0,0-45.73,11.42-23.89,36.59"/><path class="cls-2" d="M151,122.86s3.77,3.11-4.16,5.52c-15.1,4.57-62.83,6-76.09.18-4.77-2.07,4.17-5,7-5.56a18.2,18.2,0,0,1,4.61-.51c-5.3-3.74-34.26,7.33-14.71,10.5,53.32,8.65,97.2-3.9,83.37-10.13M95.14,82.26S70.86,88,86.54,90.12c6.62.88,19.82.68,32.12-.35,10-.84,20.13-2.65,20.13-2.65a42.69,42.69,0,0,0-6.1,3.27C108,96.88,60.4,93.86,74.11,87.23c11.6-5.61,21-5,21-5m43.55,24.34c25.07-13,13.48-25.54,5.39-23.85a18.65,18.65,0,0,0-2.87.77,4.6,4.6,0,0,1,2.15-1.65c16-5.63,28.3,16.59-5.17,25.39a2.13,2.13,0,0,0,.5-.66"/><path class="cls-1" d="M123.58,8.72S137.46,22.61,110.42,44c-21.69,17.13-5,26.89,0,38.05-12.66-11.42-22-21.47-15.72-30.83,9.15-13.74,34.49-20.4,28.89-42.46"/><path class="cls-2" d="M97.6,141.9c24.06,1.54,61-.86,61.88-12.24,0,0-1.68,4.31-19.88,7.74-20.54,3.86-45.86,3.41-60.88.94,0,0,3.07,2.54,18.88,3.56"/><path class="cls-1" d="M93.66,185.39c-2.27,2-4.67,3.08-6.82,3.08-3.07,0-4.73-1.84-4.73-4.8,0-3.19,1.78-5.53,8.91-5.53h2.64v7.25m6.26,7.07V170.59c0-5.59-3.18-9.28-10.87-9.28a28.73,28.73,0,0,0-11.61,2.52l.93,3.87a27,27,0,0,1,9-1.78c4.43,0,6.33,1.78,6.33,5.47v2.76H91.45c-10.75,0-15.6,4.18-15.6,10.44,0,5.41,3.19,8.48,9.21,8.48,3.87,0,6.76-1.59,9.46-3.93l.49,3.32Zm20.9,0H113l-9.4-30.59h6.82l5.83,18.79,1.3,5.65a117.26,117.26,0,0,0,6.08-24.44h6.64a124.35,124.35,0,0,1-9.46,30.59m30-7.07c-2.27,2-4.67,3.08-6.82,3.08-3.07,0-4.73-1.84-4.73-4.8,0-3.19,1.78-5.53,8.91-5.53h2.64v7.25m6.27,7.07V170.59c0-5.59-3.2-9.28-10.87-9.28a28.66,28.66,0,0,0-11.61,2.52l.92,3.87a27,27,0,0,1,9-1.78c4.43,0,6.33,1.78,6.33,5.47v2.76h-2.21c-10.76,0-15.6,4.18-15.6,10.44,0,5.41,3.19,8.48,9.21,8.48,3.87,0,6.76-1.59,9.46-3.93l.49,3.32ZM69,197.65a16.48,16.48,0,0,1-7.83,5.84l-3.09-3.64a12.9,12.9,0,0,0,5.42-5.08c.83-1.65,1.17-3.77,1.17-8.86V151h6.66v34.44c0,6.8-.55,9.55-2.33,12.22"/></g></svg>